<svg xmlns="http://www.w3.org/2000/svg" width="24" height="24" viewBox="0 0 24 24" version="1.1"><path d="" stroke="none" fill="#080404" fill-rule="evenodd"/><path d="M 11 8 C 11 10.667, 10.667 11, 8 11 C 6.350 11, 5 11.450, 5 12 C 5 12.550, 6.350 13, 8 13 C 10.667 13, 11 13.333, 11 16 C 11 17.650, 11.450 19, 12 19 C 12.550 19, 13 17.650, 13 16 C 13 13.333, 13.333 13, 16 13 C 17.650 13, 19 12.550, 19 12 C 19 11.450, 17.650 11, 16 11 C 13.333 11, 13 10.667, 13 8 C 13 6.350, 12.550 5, 12 5 C 11.450 5, 11 6.350, 11 8" stroke="none" fill="#040404" fill-rule="evenodd"/></svg>