<svg width="349" height="219" viewBox="0 0 349 219" fill="none" xmlns="http://www.w3.org/2000/svg">
<path d="M231.133 0.26847C219.376 0.907219 207.514 2.38182 196.275 6.1331C194.609 6.68881 191.596 7.2865 191.621 9.52213C191.652 11.8645 194.542 11.3207 196.306 11.2376C202.362 10.9547 208.432 10.2202 214.465 9.56957C222.038 8.7538 229.623 8.10258 237.22 7.61591C244.305 7.15966 251.444 7.2354 258.515 6.68517C260.649 6.51818 262.415 5.79092 261.17 3.48503C260.052 1.41274 257.123 1.56878 255.018 1.19283C247.184 -0.215154 239.113 -0.163142 231.133 0.26847Z" fill="#FEEAD2"/>
<path d="M315.199 197.589C307.299 209.212 299.739 214.919 299.739 214.919H42.4361C22.9332 204.136 10.3407 186.431 4.2726 165.659C3.67339 163.607 3.13776 161.526 2.66569 159.417C-0.0216213 147.436 -0.660372 134.61 0.673702 121.619C2.26328 106.146 6.65513 90.4408 13.7334 75.6547C15.9135 71.1 18.3345 66.6644 20.9859 62.3669C25.8096 54.54 31.402 47.2138 37.6801 40.497C46.0776 31.5075 55.6941 23.7399 66.2486 17.4208C126.93 -18.8392 164.445 10.5771 177.482 24.4681C182.477 29.7898 188.541 28.9247 194.499 27.1782C197.145 26.4026 199.77 25.4536 202.272 24.7938C211.424 22.3821 220.728 20.6483 230.103 20.0434C249.07 18.8197 268.204 22.5984 284.84 33.5483C285.968 34.2911 287.088 35.0658 288.2 35.8725C293.186 39.4888 297.792 43.6018 301.947 48.1483C303.731 50.1029 305.433 52.1475 307.052 54.2822C310.406 58.6931 313.289 63.4433 315.654 68.4551C316.992 71.3112 318.243 74.1238 319.406 76.893C323.255 86.0572 326.159 94.7506 328.269 102.978C328.829 105.159 329.333 107.305 329.782 109.418C330.919 114.724 331.756 120.089 332.29 125.489C335.568 159.108 325.116 183.006 315.199 197.589Z" fill="#FEEAD2"/>
<path d="M307.059 54.2802C302.352 60.0664 295.412 63.9928 288.597 67.0333C273.194 73.9044 256.818 78.0745 240.374 81.3823C187.254 92.0641 132.653 93.9748 78.79 88.7617C56.8079 86.6356 34.4928 83.1608 13.7334 75.6546C15.9136 71.0998 18.3345 66.6643 20.9859 62.3668C24.0337 63.0876 27.1052 63.7118 30.173 64.2912C63.0503 70.4962 96.5619 71.9982 129.96 72.8359C180.108 74.0933 231.527 73.6726 278.606 55.5349C286.222 52.6012 294.018 49.1675 301.957 48.1436C303.74 50.1 305.44 52.1456 307.059 54.2802Z" fill="#F1D5B8"/>
<path d="M22.7306 158.826C16.0438 158.851 9.34427 159.002 2.66569 159.417C-0.0216213 147.436 -0.660372 134.61 0.673702 121.619C20.9978 129.375 43.3787 128.911 65.0049 127.245C74.0313 126.548 83.0404 125.673 92.0322 124.622C126.616 120.607 160.946 114.211 195.067 107.002C223.344 101.027 251.505 94.487 279.55 87.3829C292.867 84.0109 306.155 80.513 319.413 76.8892C323.262 86.0534 326.166 94.7468 328.276 102.974C328.836 105.155 329.34 107.302 329.789 109.414C330.926 114.72 331.764 120.085 332.297 125.485C316.197 136.571 298.313 145.02 279.554 151.243C255.44 159.243 229.876 163.562 204.786 165.086C167.213 167.362 129.636 164.33 92.0368 161.746C68.9423 160.161 45.8433 158.743 22.7306 158.826Z" fill="#F1D5B8"/>
<path d="M323.551 208.311C323.356 206.99 324.048 204.692 325.137 202.668C327.509 198.257 330.951 194.744 333.211 190.238C337.117 182.448 339.987 173.86 341.874 165.136V165.128C342.33 162.991 342.506 159.612 343.984 158.015C346.174 155.651 348.547 156.801 348.109 160.489C346.062 177.61 340.467 197.21 327.76 207.705C324.97 210.016 323.76 209.716 323.551 208.311Z" fill="#FEEAD2"/>
<path d="M43.8175 170.7C37.7613 164.51 23.9999 137.486 23.2662 128.999C46.5277 132.762 46.7896 150.418 49.7835 169.514L43.8175 170.7Z" fill="#00433B"/>
<path d="M70.2782 167.353C76.3235 165.716 83.993 133.602 87.6157 125.587C68.3492 128.74 57.3152 148.736 60.5975 167.792C65.2895 166.868 64.2329 168.986 70.2782 167.353Z" fill="#00433B"/>
<path d="M53.7657 167.693H53.7173C53.2489 167.711 52.7811 167.723 52.3139 167.728C51.6964 167.736 51.0783 167.736 50.4597 167.728H50.3502L49.6503 167.72C49.0115 167.711 48.3682 167.699 47.7277 167.691C46.8736 167.678 46.0195 167.67 45.1663 167.68C37.3726 154.53 44.0941 125.006 43.4891 109.696C49.163 115.581 52.7865 118.65 55.6053 127.034C55.9018 127.917 56.1938 128.859 56.474 129.852C57.3981 133.139 58.0953 136.487 58.5608 139.87C58.5613 139.874 58.5613 139.878 58.5608 139.882C59.9296 149.833 59.3894 161.075 53.7657 167.693Z" fill="#006C60"/>
<path d="M53.7174 167.695L53.6872 167.73H47.7323C47.7323 167.717 47.7323 167.704 47.7277 167.691C45.3835 151.21 53.1407 135.518 56.474 129.848C57.3983 133.137 58.0955 136.485 58.5609 139.87C58.5613 139.874 58.5613 139.878 58.5609 139.882C59.509 150.696 58.8347 161.724 53.7174 167.695Z" fill="#2E2E2E"/>
<path d="M60.718 167.747C75.3399 160.509 77.247 112.11 81.0083 97.8822C63.7748 111.909 45.8041 145.212 52.8978 167.737L60.718 167.747Z" fill="#006C60"/>
<path d="M56.4786 167.712C56.4305 167.712 56.3828 167.704 56.3371 167.689C56.2199 167.652 56.1224 167.569 56.0659 167.46C56.0095 167.351 55.9987 167.223 56.036 167.106L73.1162 113.663C73.1568 113.55 73.2399 113.457 73.3478 113.403C73.4558 113.35 73.5802 113.341 73.6948 113.377C73.8095 113.414 73.9054 113.494 73.9624 113.6C74.0194 113.706 74.033 113.83 74.0004 113.946L56.9184 167.388C56.8888 167.482 56.8303 167.564 56.7512 167.622C56.6722 167.68 56.5767 167.712 56.4786 167.712Z" fill="#00433B"/>
<path d="M50.3484 167.729L49.6485 167.72C51.0282 155.002 50.4095 143.245 49.5736 135.235C48.5434 125.38 46.9685 118.91 46.9529 118.845C46.936 118.757 46.9535 118.666 47.0017 118.591C47.05 118.516 47.1253 118.462 47.2121 118.441C47.2989 118.419 47.3906 118.432 47.4682 118.476C47.5458 118.521 47.6034 118.593 47.6291 118.679C47.6446 118.744 49.2296 125.249 50.2653 135.15C51.1076 143.183 51.7271 154.97 50.3484 167.729Z" fill="#00433B"/>
<path d="M72.8998 165.951C73.1515 165.951 73.4001 166.007 73.6276 166.114C73.8551 166.222 74.056 166.379 74.2157 166.573C74.3755 166.768 74.4902 166.995 74.5515 167.239C74.6129 167.483 74.6194 167.738 74.5706 167.985L73.9793 170.976L73.8762 171.495L73.6809 172.484V172.507L73.2192 174.842L73.1216 175.337L73.0239 175.83L72.8195 176.867L69.5656 193.304L69.436 193.957L69.2617 194.835L69.2407 194.946L68.7744 197.304L68.7023 197.669L68.5782 198.295L68.3957 199.199L67.7451 202.491C67.669 202.878 67.4609 203.226 67.1563 203.477C66.8517 203.727 66.4696 203.864 66.0752 203.864H45.0504C44.6548 203.864 44.2717 203.726 43.9668 203.474C43.6618 203.222 43.4542 202.872 43.3796 202.484L42.729 199.199L42.5465 198.295L42.4224 197.669L42.3503 197.304L41.8849 194.946L41.863 194.835L41.6887 193.957L41.5591 193.304L38.3106 176.867L38.1053 175.83L38.0077 175.337L37.911 174.842L37.4483 172.507V172.484L37.2521 171.495L37.1499 170.976L36.5577 167.985C36.5089 167.738 36.5154 167.483 36.5768 167.239C36.6382 166.995 36.7528 166.768 36.9126 166.573C37.0724 166.379 37.2732 166.222 37.5007 166.114C37.7283 166.007 37.9768 165.951 38.2285 165.951H72.8998Z" fill="#EF772C"/>
<path d="M73.2147 174.841L73.1171 175.337L73.0194 175.83H38.109L38.0114 175.337L37.9147 174.841H73.2147Z" fill="#FFAE41"/>
<path d="M73.8761 171.495L73.6809 172.484H37.4483L37.2521 171.495H73.8761Z" fill="#FFAE41"/>
<path d="M68.7744 197.303L68.7023 197.665L68.5782 198.292H42.5501L42.426 197.665L42.3539 197.303H68.7744Z" fill="#FFAE41"/>
<path d="M69.436 193.957L69.2617 194.835L69.2407 194.946H41.8877L41.8667 194.835L41.6924 193.957H69.436Z" fill="#FFAE41"/>
<path d="M81.2281 185.444L275.13 185.444C275.794 185.444 276.333 184.905 276.333 184.24V64.5084C276.333 63.8437 275.794 63.3048 275.13 63.3048L81.2281 63.3048C80.5634 63.3048 80.0245 63.8437 80.0245 64.5084L80.0245 184.24C80.0245 184.905 80.5634 185.444 81.2281 185.444Z" fill="#006C60"/>
<path d="M271.651 74.6518H84.7048V174.096H271.651V74.6518Z" fill="white"/>
<path d="M84.7048 74.6526V84.0633H271.652V74.6526H84.7048ZM264.036 79.3584C264.035 79.0498 264.127 78.748 264.298 78.4913C264.469 78.2345 264.713 78.0344 264.998 77.9162C265.283 77.7979 265.597 77.7669 265.9 77.827C266.203 77.8871 266.481 78.0356 266.699 78.2538C266.917 78.472 267.066 78.75 267.126 79.0528C267.187 79.3555 267.156 79.6692 267.038 79.9544C266.92 80.2396 266.72 80.4833 266.463 80.6548C266.206 80.8263 265.905 80.9179 265.596 80.9179C265.391 80.918 265.188 80.8777 264.999 80.7994C264.81 80.7211 264.638 80.6063 264.493 80.4614C264.348 80.3166 264.233 80.1447 264.154 79.9554C264.076 79.7661 264.036 79.5633 264.036 79.3584ZM257.794 79.3584C257.794 79.0498 257.885 78.748 258.057 78.4913C258.228 78.2345 258.472 78.0344 258.757 77.9162C259.042 77.7979 259.356 77.7669 259.658 77.827C259.961 77.8871 260.239 78.0356 260.457 78.2538C260.676 78.472 260.825 78.75 260.885 79.0528C260.945 79.3555 260.914 79.6692 260.796 79.9544C260.678 80.2396 260.478 80.4833 260.221 80.6548C259.965 80.8263 259.663 80.9179 259.354 80.9179C258.941 80.9179 258.544 80.7536 258.251 80.4612C257.959 80.1687 257.794 79.7721 257.794 79.3584ZM251.554 79.3584C251.553 79.0498 251.645 78.748 251.816 78.4913C251.987 78.2345 252.231 78.0344 252.516 77.9162C252.801 77.7979 253.115 77.7669 253.418 77.827C253.72 77.8871 253.999 78.0356 254.217 78.2538C254.435 78.472 254.584 78.75 254.644 79.0528C254.704 79.3555 254.674 79.6692 254.556 79.9544C254.437 80.2396 254.237 80.4833 253.981 80.6548C253.724 80.8263 253.423 80.9179 253.114 80.9179C252.7 80.9179 252.304 80.7536 252.011 80.4611C251.719 80.1687 251.554 79.772 251.554 79.3584H251.554Z" fill="#F1D5B8"/>
<g opacity="0.54">
<path d="M271.652 91.9418V174.096H84.7048V152.1C96.466 153.411 219.296 165.188 271.652 91.9418Z" fill="#FEEAD2"/>
</g>
<path d="M114.842 83.1635L98.6917 122.926L136.738 165.263L159.618 95.6711L114.842 83.1635Z" fill="#CEAA91"/>
<path d="M98.7906 122.724L98.6012 123.147L143.902 143.42L144.091 142.997L98.7906 122.724Z" fill="#8A5C54"/>
<path d="M115.062 83.1156L114.614 83.235L136.505 165.336L136.953 165.216L115.062 83.1156Z" fill="#8A5C54"/>
<path d="M102.673 124.701L102.245 124.523L103.715 121.017L100.111 119.413L100.299 118.989L104.317 120.778L102.673 124.701Z" fill="#8A5C54"/>
<path d="M118.672 92.8242L112.091 89.9179L112.278 89.4945L118.409 92.2019L121.125 84.8982L121.56 85.0597L118.672 92.8242Z" fill="#8A5C54"/>
<path d="M128.878 137.277C129.482 137.277 129.971 136.787 129.971 136.183C129.971 135.58 129.482 135.09 128.878 135.09C128.274 135.09 127.785 135.58 127.785 136.183C127.785 136.787 128.274 137.277 128.878 137.277Z" fill="#8A5C54"/>
<path d="M94.5671 122.923L94.2523 124.059H93.2139L94.5671 119.632H95.882L97.2508 124.059H96.174L95.8318 122.923H94.5671ZM95.6904 122.174L95.4166 121.235C95.3373 120.972 95.2588 120.644 95.1931 120.381H95.1803C95.1137 120.644 95.048 120.978 94.9759 121.235L94.7131 122.174H95.6904Z" fill="#8A5C54"/>
<path d="M112.091 77.7561C112.519 77.6904 112.952 77.6598 113.385 77.6648C113.996 77.6648 114.37 77.7241 114.692 77.9148C114.853 77.9953 114.988 78.1192 115.082 78.2724C115.176 78.4256 115.225 78.602 115.224 78.7817C115.224 79.1759 114.994 79.5436 114.494 79.7271V79.7407C115 79.8785 115.374 80.2591 115.374 80.8303C115.375 81.0115 115.335 81.1905 115.256 81.3535C115.176 81.5165 115.061 81.6591 114.918 81.7701C114.596 82.0256 114.057 82.1707 113.177 82.1707C112.815 82.1742 112.453 82.1523 112.093 82.105L112.091 77.7561ZM113.083 79.4506H113.411C113.937 79.4506 114.219 79.2334 114.219 78.9031C114.219 78.5727 113.963 78.3912 113.51 78.3912C113.367 78.3885 113.224 78.3974 113.083 78.4176V79.4506ZM113.083 81.4143C113.211 81.4262 113.341 81.4305 113.47 81.427C113.927 81.427 114.324 81.2564 114.324 80.7883C114.324 80.3421 113.924 80.1642 113.424 80.1642H113.083V81.4143Z" fill="#8A5C54"/>
<path d="M160.055 92.7585C159.873 92.8497 159.458 92.9492 158.919 92.9492C157.388 92.9492 156.601 91.9965 156.601 90.7355C156.601 89.2253 157.677 88.3849 159.018 88.3849C159.536 88.3849 159.93 88.4898 160.107 88.581L159.904 89.3758C159.638 89.2658 159.352 89.2099 159.064 89.2116C158.269 89.2116 157.651 89.6916 157.651 90.6771C157.651 91.5631 158.177 92.1215 159.07 92.1215C159.354 92.121 159.636 92.0723 159.904 91.9774L160.055 92.7585Z" fill="#8A5C54"/>
<path d="M130.792 164.058C131.24 163.993 131.692 163.962 132.145 163.966C132.985 163.966 133.53 164.118 133.957 164.439C134.413 164.781 134.706 165.326 134.706 166.108C134.706 166.955 134.397 167.54 133.971 167.901C133.504 168.288 132.794 168.472 131.928 168.472C131.548 168.475 131.168 168.453 130.792 168.406V164.058ZM131.795 167.67C131.911 167.687 132.027 167.694 132.144 167.689C133.05 167.697 133.641 167.197 133.641 166.138C133.648 165.218 133.109 164.732 132.249 164.732C132.096 164.728 131.943 164.742 131.793 164.772L131.795 167.67Z" fill="#8A5C54"/>
<path d="M125.599 140.681H123.971V141.732H125.79V142.554H122.961V138.127H125.693V138.948H123.966V139.868H125.595L125.599 140.681Z" fill="#8A5C54"/>
<path d="M207.276 98.4369L211.241 101.174C211.241 101.174 219.362 97.5126 220.265 93.8106L220.297 93.5012L220.559 89.1158L220.901 83.2529L208.699 83.1617C208.699 83.1617 208.826 85.3617 208.79 88.1503C208.775 89.572 208.711 91.1369 208.568 92.6462C208.358 94.9256 207.968 97.0901 207.276 98.4369Z" fill="#FFA07F"/>
<path d="M208.564 92.6535C209.294 93.1627 210.033 93.5432 210.708 93.671C212.807 94.0834 217.898 90.9143 220.563 89.1185L220.905 83.2557L208.703 83.1645C208.703 83.1645 208.83 85.3645 208.795 88.1531C208.77 89.5793 208.706 91.1443 208.564 92.6535Z" fill="#FF7D6F"/>
<path d="M224.401 73.2456C224.165 78.0718 223.796 82.2985 223.796 82.2985L222.101 84.2859C220.407 86.2742 213.805 90.0693 208.71 90.0347C206.709 90.021 205.035 88.9022 203.741 87.549C201.815 85.5369 200.649 82.9181 200.357 80.1477C199.815 75.0021 198.988 66.5652 198.806 64.7803C198.785 64.5613 198.773 64.4427 198.773 64.4427C204.209 49.537 221.716 57.8791 223.684 59.4194C224.784 60.2726 224.696 67.2267 224.401 73.2456Z" fill="#FFA07F"/>
<path d="M224.401 73.2456C224.34 73.3961 224.281 73.5449 224.219 73.6945C224.068 73.5312 223.931 73.8643 223.781 73.7009C223.433 71.9281 222.762 70.2343 221.801 68.7041C220.889 67.2313 220.819 65.503 220.644 63.7875C220.552 62.8604 220.349 61.6112 220.286 60.685C216.63 65.5304 210.208 68.1237 204.214 67.1738C202.238 66.8599 200.249 66.1436 198.807 64.7821C198.786 64.5631 198.774 64.4445 198.774 64.4445C204.209 49.5389 221.717 57.8809 223.685 59.4212C224.784 60.2726 224.696 67.2267 224.401 73.2456Z" fill="#FF7D6F"/>
<path d="M208.804 84.1326C209.631 84.1943 210.46 84.0491 211.216 83.71C211.973 83.371 212.633 82.8489 213.137 82.1908C213.406 81.8349 213.628 81.4453 213.795 81.0319C213.856 80.8832 213.729 80.7043 213.586 80.6669C213.51 80.6484 213.43 80.6596 213.362 80.6983C213.295 80.737 213.244 80.8002 213.221 80.875C212.862 81.7291 212.24 82.4471 211.447 82.9257C210.653 83.4044 209.728 83.6189 208.805 83.5386C208.764 83.5363 208.724 83.5424 208.686 83.5563C208.648 83.5703 208.613 83.5919 208.583 83.6198C208.554 83.6476 208.53 83.6812 208.514 83.7185C208.498 83.7558 208.49 83.7959 208.49 83.8365C208.49 83.8771 208.498 83.9172 208.514 83.9545C208.53 83.9917 208.554 84.0254 208.583 84.0532C208.613 84.0811 208.648 84.1027 208.686 84.1167C208.724 84.1306 208.764 84.1367 208.805 84.1344L208.804 84.1326Z" fill="#252727"/>
<path d="M208.915 71.5657C208.915 71.5657 208.855 76.1701 206.219 79.0482C206.219 79.0482 206.968 81.4207 209.994 80.1277C209.994 80.1258 210.533 77.8966 208.915 71.5657Z" fill="#FF7D6F"/>
<path d="M214.186 68.0124L214.22 68.0005L214.339 67.9622C214.414 67.9394 214.489 67.9184 214.564 67.9001C214.721 67.8611 214.879 67.8306 215.039 67.8089C215.11 67.7989 215.181 67.7916 215.252 67.7843C215.302 67.7788 215.236 67.7843 215.231 67.7843H215.303L215.428 67.7788C215.583 67.7788 215.739 67.7788 215.894 67.787C216.049 67.7969 216.204 67.8145 216.358 67.8399C216.388 67.8399 216.489 67.8646 216.408 67.8472L216.513 67.87C216.595 67.8874 216.676 67.9074 216.757 67.9303C216.907 67.971 217.055 68.0194 217.201 68.0754C217.267 68.1009 217.334 68.1274 217.4 68.1566L217.514 68.2077C217.558 68.2268 217.504 68.2022 217.498 68.1994L217.562 68.2314C217.882 68.3944 218.182 68.5947 218.454 68.8282C218.621 68.9705 218.925 68.8847 219.031 68.7086C219.159 68.4942 219.089 68.2834 218.912 68.1319C217.833 67.2103 216.364 66.8234 214.966 66.9849C214.568 67.035 214.178 67.133 213.803 67.2769C213.599 67.3536 213.522 67.6593 213.621 67.8381C213.744 68.0535 213.963 68.0982 214.182 68.0206L214.186 68.0124Z" fill="#252727"/>
<path d="M202.34 69.1311C202.409 69.0691 202.481 69.0097 202.555 68.9532C202.582 68.9313 202.611 68.9112 202.639 68.8902C202.677 68.8637 202.667 68.8692 202.639 68.8902L202.697 68.8519C202.834 68.7629 202.976 68.683 203.123 68.6128C203.207 68.5717 203.292 68.5343 203.379 68.5006C203.39 68.5006 203.499 68.4549 203.408 68.4878L203.541 68.4431C203.703 68.3917 203.867 68.3509 204.033 68.3208C204.119 68.3044 204.206 68.2916 204.292 68.2816L204.396 68.2706C204.29 68.2816 204.44 68.2706 204.46 68.2706C204.629 68.2624 204.798 68.2652 204.966 68.2788C205.057 68.2852 205.14 68.2953 205.226 68.308L205.33 68.3254C205.223 68.3071 205.372 68.3345 205.391 68.3391C205.561 68.3776 205.729 68.4282 205.892 68.4905C205.997 68.5245 206.111 68.5158 206.209 68.4665C206.308 68.4172 206.383 68.3311 206.418 68.2268C206.451 68.122 206.442 68.0087 206.393 67.9105C206.343 67.8124 206.258 67.7371 206.155 67.7003C205.42 67.4335 204.627 67.3683 203.858 67.5115C203.09 67.6546 202.374 68.0008 201.784 68.5143C201.743 68.5509 201.71 68.5951 201.687 68.6445C201.663 68.6938 201.65 68.7474 201.647 68.802C201.644 68.8566 201.652 68.9112 201.67 68.9628C201.688 69.0143 201.717 69.0617 201.753 69.1024C201.79 69.143 201.834 69.176 201.884 69.1995C201.933 69.223 201.986 69.2366 202.041 69.2395C202.096 69.2423 202.15 69.2343 202.202 69.2161C202.253 69.1978 202.301 69.1695 202.341 69.1329L202.34 69.1311Z" fill="#252727"/>
<path d="M205.014 72.0281C205.095 71.0542 204.669 70.2241 204.062 70.174C203.456 70.1238 202.899 70.8726 202.819 71.8464C202.738 72.8203 203.164 73.6504 203.77 73.7006C204.377 73.7508 204.933 73.0019 205.014 72.0281Z" fill="#252727"/>
<path d="M216.129 71.9799C216.054 72.8924 215.531 73.5969 214.961 73.5504C214.392 73.5038 213.991 72.7236 214.067 71.8093C214.143 70.895 214.666 70.1914 215.235 70.2389C215.805 70.2863 216.204 71.0656 216.129 71.9799Z" fill="#252727"/>
<path d="M221.854 82.7711C224.556 82.6416 226.567 81.1031 227.66 79.7964C227.879 79.5353 228.077 79.2577 228.254 78.966C229.066 77.5973 229.435 72.761 227.488 71.5748C226.119 70.7444 225.077 71.8558 224.568 72.5977C224.445 72.7772 224.334 72.9654 224.237 73.1607L221.854 82.7711Z" fill="#FFBF90"/>
<path d="M221.854 82.7712C224.556 82.6416 226.567 81.1031 227.66 79.7964C227.755 79.6626 227.838 79.5348 227.909 79.4132C228.722 78.0444 229.095 73.2082 227.144 72.0219C226.038 71.3485 225.142 71.9498 224.573 72.5968C224.449 72.7763 224.338 72.9645 224.242 73.1598L221.854 82.7712Z" fill="#FFA07F"/>
<path d="M227.996 75.4374C228.087 75.828 228.007 76.2295 227.869 76.6072C227.277 78.216 225.617 79.4059 224.027 80.51C224.505 79.7581 224.724 78.8704 224.65 77.9824C224.61 77.6815 224.586 77.3787 224.576 77.0753C224.602 75.8562 227.478 73.1297 227.996 75.4374Z" fill="#FF7D6F"/>
<path d="M223.233 80.948L223.324 80.9015C223.382 80.8686 223.474 80.8266 223.58 80.7591C223.874 80.576 224.139 80.3506 224.367 80.0902C224.686 79.724 224.915 79.2889 225.037 78.8191C225.177 78.2479 225.127 77.6464 224.894 77.1064C224.864 77.0312 224.829 76.9586 224.787 76.8892L224.758 76.8372C224.751 76.8235 224.758 76.8317 224.758 76.8299V76.8217L224.785 76.7761L224.84 76.6848C224.878 76.6255 224.915 76.5653 224.954 76.5078C225.105 76.2803 225.268 76.0616 225.443 75.8526C225.613 75.65 225.787 75.4639 225.96 75.2942C226.117 75.1341 226.286 74.9862 226.465 74.8516C226.615 74.7403 226.79 74.6693 226.975 74.6454C227.122 74.6333 227.269 74.6623 227.401 74.7293C227.48 74.7685 227.544 74.8326 227.583 74.9118C227.595 74.9382 227.603 74.9657 227.609 74.9939C227.615 74.9639 227.615 74.9327 227.609 74.9027C227.587 74.8109 227.533 74.7304 227.455 74.6764C227.314 74.5725 227.144 74.5133 226.969 74.5067C226.734 74.505 226.503 74.5638 226.297 74.6773C226.08 74.7979 225.873 74.9368 225.679 75.0925C225.463 75.2603 225.258 75.4413 225.065 75.6345C224.857 75.8425 224.666 76.0658 224.491 76.3025C224.447 76.3627 224.4 76.4247 224.361 76.485L224.298 76.5762L224.215 76.7113L224.158 76.8025C224.17 76.8345 224.191 76.8673 224.208 76.9002L224.283 77.0407C224.318 77.1006 224.349 77.1635 224.374 77.2287C224.579 77.7063 224.65 78.2311 224.579 78.7461C224.514 79.179 224.361 79.5941 224.13 79.9662C223.96 80.2353 223.755 80.4807 223.521 80.6962C223.435 80.7765 223.358 80.8312 223.311 80.8732L223.233 80.948Z" fill="#CF4A57"/>
<path d="M227.925 70.05C227.86 70.2097 227.804 70.3758 227.75 70.5437C227.531 71.2107 227.334 71.8914 226.672 72.24C225.942 72.6233 225.293 73.1525 224.665 73.6936C225.065 73.3469 222.692 69.007 222.406 68.4276C221.551 66.7091 220.979 64.8637 220.712 62.9626C220.588 62.0364 220.554 60.8639 220.315 60.0426C220.126 60.2105 219.939 60.38 219.754 60.5509C219.066 61.1796 218.385 61.8165 217.624 62.3622C214.577 64.5349 210.813 65.3251 207.142 65.5833C204.158 65.7923 200.937 65.9483 198.176 64.5659C195.63 63.2884 194.654 59.3491 195.205 56.7914C195.844 53.8221 198.392 51.3575 201.381 50.8154C201.266 51.1223 201.24 51.4554 201.306 51.7763C201.354 52.0222 201.452 52.2553 201.596 52.4607C201.657 52.5483 201.726 52.6296 201.803 52.7034C201.468 52.3831 206.308 50.121 206.659 50.0152C210.224 48.9536 214.024 48.9806 217.573 50.0927C218.931 50.5221 220.222 51.1385 221.41 51.9241C222.457 52.6204 223.668 53.2327 224.208 54.4153C224.467 54.9837 224.618 55.5933 224.768 56.1992C226.572 55.0631 228.612 57.7614 229.266 59.1237C231.023 62.7874 229.321 66.6026 227.925 70.05Z" fill="#3D2027"/>
<path d="M235.381 136.759V136.831C235.194 143.318 235.12 160.574 234.827 174.096H186.428C186.611 170.446 186.799 166.639 186.966 163.397C187.088 161.035 187.2 158.971 187.289 157.48C187.36 156.32 187.418 155.507 187.458 155.168C187.843 151.903 188.211 148.625 188.588 145.343C189.207 139.959 189.849 134.56 190.63 129.192C190.856 127.631 191.095 126.074 191.346 124.521C191.903 121.084 192.532 117.663 193.262 114.268C193.7 112.219 194.178 110.181 194.696 108.154C194.74 107.966 195.474 104.919 196.059 102.551C196.409 101.133 196.707 99.9581 196.771 99.7838C197.062 98.9927 197.621 98.3281 198.349 97.904C198.488 97.8226 198.63 97.7486 198.776 97.6823C200.365 96.9578 202.476 97.0144 204.234 96.7059C204.624 96.6422 205.008 96.547 205.383 96.4212C205.729 96.3095 206.049 96.1316 206.327 95.8975C206.993 95.3199 207.174 94.4648 207.175 93.3981C207.175 91.2519 207.631 91.418 209.595 91.4417C210.81 91.4563 211.991 91.0557 213.176 90.761C215.963 90.0666 218.756 89.3412 221.429 88.2744C221.543 88.2279 221.684 88.1832 221.782 88.2598C221.881 88.3365 221.878 88.467 221.874 88.5829C221.772 90.699 220.862 92.5915 223.053 93.6865C224.575 94.3599 226.18 94.8891 227.74 95.4887C227.926 95.5598 228.112 95.6322 228.297 95.7058C228.368 95.7341 228.433 95.7551 228.497 95.7843C228.757 95.8847 228.965 95.9668 229.115 96.0352C229.577 96.2287 230.065 96.4322 230.567 96.6457C231.227 96.9258 231.909 97.2206 232.591 97.5217C232.918 101.215 235.539 130.305 235.381 136.759Z" fill="#3D2027"/>
<path d="M228.134 165.413C228.03 165.87 227.579 166.153 227.168 166.382C224.854 167.668 222.479 168.977 219.863 169.393C217.703 169.734 215.497 169.445 213.328 169.154C207.488 168.372 201.617 167.582 195.894 166.222C193.547 165.664 191.225 165.011 188.941 164.224C188.279 163.996 187.617 163.755 186.961 163.494L186.729 163.403C186.852 161.042 186.963 158.978 187.053 157.487L187.286 157.543C189.511 158.078 192.514 158.785 195.885 159.536C201.686 160.829 208.58 162.251 214.476 163.155C219.296 163.892 223.449 164.284 225.791 163.976C226.187 163.912 227.762 165.275 228.134 165.413Z" fill="#7C5942"/>
<path d="M232.319 119.629L232.052 119.661L222.163 120.833L197.272 123.783L191.351 124.485L191.11 124.514C191.667 121.078 192.296 117.657 193.026 114.262L193.265 114.245C194.595 114.154 196.133 114.055 197.808 113.939C205.982 113.375 217.427 112.531 223.898 112.051L228.877 111.678L232.024 118.947L232.319 119.629Z" fill="#7C5942"/>
<path d="M232.713 142.715C232.291 144.983 231.841 146.788 231.841 146.788C231.841 146.788 226.291 149.909 216.822 149.963C211.964 149.991 206.073 149.211 199.371 146.788C198.262 146.386 197.226 146.058 196.262 145.805C192.965 144.928 190.473 144.85 188.597 145.284C188.514 145.302 188.433 145.322 188.353 145.343C188.972 139.959 189.614 134.56 190.395 129.192L190.529 129.909L191.072 132.818C191.072 132.818 193.339 132.966 196.805 133.167C198.527 133.267 200.547 133.38 202.728 133.495L204.786 133.602C209.593 133.845 214.964 134.079 219.66 134.198C225.708 134.35 230.645 134.308 231.839 133.841C232.046 133.748 232.278 133.723 232.5 133.771C234.001 134.165 233.396 139.046 232.713 142.715Z" fill="#7C5942"/>
<path d="M233.076 166.067L230.446 174.097H186.428C186.611 170.478 186.793 166.713 186.961 163.492C187.617 163.753 188.279 163.995 188.941 164.222C191.222 165.008 193.547 165.662 195.894 166.219C201.617 167.579 207.489 168.369 213.328 169.151C215.497 169.442 217.703 169.731 219.863 169.39C222.479 168.977 224.854 167.668 227.168 166.379C227.579 166.15 228.03 165.87 228.134 165.411C227.762 165.272 226.187 163.91 225.794 163.963C223.449 164.275 219.296 163.883 214.479 163.141C215.092 159.74 215.899 155.161 216.825 149.956C226.294 149.902 231.844 146.78 231.844 146.78C231.844 146.78 232.293 144.975 232.716 142.708C232.989 155.694 233.076 166.067 233.076 166.067Z" fill="#270A04"/>
<path d="M196.262 145.805C196.08 150.811 195.938 155.52 195.885 159.53C192.514 158.779 189.511 158.07 187.286 157.537V157.48C187.357 156.32 187.415 155.507 187.455 155.168C187.84 151.903 188.209 148.625 188.586 145.343C188.586 145.323 188.59 145.303 188.593 145.284C190.473 144.85 192.965 144.928 196.262 145.805Z" fill="#270A04"/>
<path d="M197.272 123.786C197.112 126.839 196.953 129.991 196.804 133.163C193.336 132.962 191.07 132.814 191.07 132.814L190.527 129.905C190.56 129.666 190.595 129.427 190.63 129.188C190.856 127.628 191.095 126.071 191.346 124.517C191.346 124.507 191.346 124.498 191.351 124.488L197.272 123.786Z" fill="#270A04"/>
<path d="M232.501 133.767C232.279 133.719 232.048 133.744 231.841 133.837C230.646 134.305 225.71 134.347 219.662 134.194C220.483 129.723 221.324 125.19 222.163 120.836L232.052 119.663C232.229 124.261 232.376 129.066 232.501 133.767Z" fill="#270A04"/>
<path d="M198.348 97.8986L198.823 96.9341C198.823 96.9341 198.806 97.1923 198.775 97.6768C198.645 99.7446 198.258 105.945 197.807 113.941C196.132 114.057 194.594 114.16 193.264 114.247C193.701 112.204 194.178 110.171 194.695 108.148C194.739 107.96 195.473 104.913 196.058 102.545L198.348 97.8986Z" fill="#270A04"/>
<path d="M232.027 118.949L228.88 111.68L223.901 112.052C225.34 104.983 226.683 99.0118 227.742 95.4841C227.928 95.5553 228.114 95.6277 228.299 95.7013C228.37 95.7295 228.435 95.7505 228.499 95.7797C228.758 95.8801 228.967 95.9622 229.117 96.0307C229.579 96.2241 230.067 96.4276 230.569 96.6411C231.188 101.511 231.662 109.779 232.027 118.949Z" fill="#270A04"/>
<g opacity="0.4">
<path d="M195.892 166.219C193.545 165.662 191.223 165.008 188.939 164.222C188.277 163.994 187.616 163.752 186.96 163.492C186.96 163.46 186.96 163.429 186.96 163.4C187.08 161.069 187.191 159.026 187.28 157.54C189.505 158.075 192.508 158.782 195.879 159.533C195.852 162.076 195.851 164.341 195.892 166.219Z" fill="#270A04"/>
<path d="M191.071 132.814C191.071 132.814 193.337 132.962 196.804 133.163C196.602 137.428 196.416 141.715 196.263 145.805C192.965 144.928 190.473 144.85 188.598 145.284C189.186 140.157 189.797 135.021 190.529 129.905L191.071 132.814Z" fill="#270A04"/>
<path d="M197.808 113.942C197.636 117.004 197.453 120.33 197.273 123.786L191.353 124.488C191.909 121.062 192.539 117.651 193.262 114.268V114.251C194.595 114.161 196.132 114.063 197.808 113.942Z" fill="#270A04"/>
<path d="M228.134 165.413C228.03 165.87 227.58 166.153 227.168 166.382C224.854 167.668 222.48 168.977 219.864 169.393C217.703 169.734 215.497 169.445 213.328 169.154C213.496 168.497 213.9 166.344 214.476 163.151C219.296 163.889 223.45 164.28 225.791 163.973C226.187 163.912 227.762 165.275 228.134 165.413Z" fill="#270A04"/>
<path d="M232.052 119.663L222.163 120.836C222.749 117.793 223.33 114.838 223.897 112.052L228.875 111.68L232.023 118.949C232.034 119.187 232.043 119.424 232.052 119.663Z" fill="#270A04"/>
<path d="M232.713 142.715C232.291 144.983 231.841 146.788 231.841 146.788C231.841 146.788 226.291 149.909 216.822 149.963C217.687 145.102 218.655 139.696 219.662 134.194C225.71 134.347 230.647 134.305 231.841 133.837C232.048 133.744 232.28 133.719 232.502 133.767C232.582 136.822 232.652 139.833 232.713 142.715Z" fill="#270A04"/>
</g>
<path d="M259.299 154.632C259.269 154.791 259.123 155.089 258.884 155.504C257.804 157.372 254.799 161.596 251.599 165.97C251.221 166.488 250.839 167.009 250.458 167.527C250.24 167.822 250.024 168.116 249.808 168.41C248.312 170.436 246.843 172.406 245.578 174.096H216.853C219.134 141.415 228.295 95.7004 228.295 95.7004L236.563 98.3375H236.568C237.115 98.5255 242.901 101.007 246.376 104.999C249.966 109.135 260.197 150.145 259.299 154.632Z" fill="#FFAE41"/>
<g opacity="0.5">
<path d="M243.265 152.493L228.033 174.096H220.894C225.828 169.289 238.997 154.52 235.385 136.831L236.004 126.916C236.004 126.916 242.582 142.414 243.265 152.493Z" fill="#EF772C"/>
</g>
<path d="M155.523 122.992C155.533 123 155.534 123.008 155.543 123.015C155.557 123.034 155.574 123.052 155.592 123.067L157.797 121.74L155.531 122.99L155.523 122.992Z" fill="#FFA07F"/>
<path d="M155.531 122.99L155.543 123.015C155.557 123.034 155.574 123.052 155.592 123.067L157.797 121.74L155.531 122.99Z" fill="#FFBF90"/>
<path d="M137.218 116.15C137.259 116.204 137.299 116.258 137.341 116.32C137.383 116.382 137.433 116.435 137.475 116.497C137.574 116.611 137.685 116.741 137.802 116.869C138.415 117.551 139.299 118.359 140.236 119.125L140.663 119.476C140.704 119.501 140.741 119.532 140.775 119.567L141.14 119.85C141.695 120.277 142.245 120.671 142.734 120.988L142.755 121C143.62 121.559 144.652 121.801 145.675 121.687L147.474 121.488L150.106 125.984L155.521 122.997H155.529L157.795 121.747C156.955 120.815 154.139 117.501 154.139 117.501C154.139 117.501 156.74 112.721 155.313 110.072C154.475 108.506 153.625 106.916 153.421 105.145C153.318 104.219 153.339 103.277 153.129 102.373C152.919 101.47 152.436 100.56 151.612 100.142C151.586 100.131 151.562 100.118 151.539 100.101C151.487 100.082 151.434 100.066 151.38 100.054C151.352 100.049 151.323 100.047 151.294 100.048C151.233 100.052 151.174 100.074 151.126 100.112C151.087 100.132 151.05 100.157 151.017 100.186C150.971 100.23 150.932 100.281 150.901 100.337C150.882 100.36 150.865 100.384 150.851 100.411C150.838 100.438 150.824 100.456 150.81 100.484C150.796 100.511 150.791 100.528 150.777 100.556C149.682 102.948 149.435 105.642 150.078 108.193C150.078 108.193 136.607 98.8102 135.87 99.5155C135.629 99.7364 135.441 100.01 135.322 100.314C135.216 100.565 135.156 100.834 135.146 101.107C135.146 101.107 139.301 105.474 141.759 107.853H141.751C140.676 108.309 138.991 109.074 138.873 109.335C138.714 109.677 137.104 115.191 136.986 115.449C136.923 115.605 137.013 115.847 137.218 116.15Z" fill="#FFA07F"/>
<path d="M146.418 114.358C147.765 112.748 145.489 111.206 144.566 110.171C144.222 109.784 142.409 107.42 141.762 107.849L141.754 107.855C140.68 108.302 138.989 109.072 138.874 109.337C138.717 109.679 137.108 115.195 136.99 115.456C136.872 115.717 137.215 116.231 137.8 116.873C138.733 117.897 141.012 120.341 142.397 118.674C142.678 118.336 142.84 117.917 142.993 117.505C144.119 117.53 145.145 116.466 145.08 115.342C145.089 115.48 146.332 114.46 146.418 114.358Z" fill="#FFBF90"/>
<path d="M198.823 96.9341C198.823 96.9341 193.747 145.106 190.662 174.096H183.278C183.96 167.728 184.738 160.695 185.56 153.565C182.909 157.606 179.568 162.426 178.773 162.325C178.607 162.304 178.408 162.291 178.182 162.282C176.533 162.217 173.469 162.373 172.119 161.471C171.442 161.02 166.413 153.728 161.002 145.718C159.263 143.146 157.486 140.498 155.801 137.98C154.788 136.469 153.811 135.004 152.896 133.63C149.314 128.258 146.676 124.265 146.676 124.265L155.534 117.318L161.693 123.791L164.666 126.915L168.609 131.057L174.336 137.079C174.336 137.079 184.061 104.835 184.915 103.47C185.768 102.105 192.312 99.3641 192.312 99.3641L198.823 96.9341Z" fill="#FFAE41"/>
<path d="M233.076 166.067L229.113 174.097H240.8L233.076 166.067Z" fill="#FFA07F"/>
<g opacity="0.5">
<path d="M192.247 105.348C192.184 105.57 189.174 116.244 189.005 118.63C188.835 121.04 185.556 153.564 185.556 153.564C182.905 157.605 179.565 162.425 178.77 162.324C178.604 162.303 178.405 162.29 178.179 162.281C180.975 154.981 185.626 126.744 185.556 124.7C185.48 122.412 192.131 105.637 192.247 105.348Z" fill="#EF772C"/>
</g>
<path d="M138.969 109.248L138.782 109.441L144.987 115.447L145.175 115.253L138.969 109.248Z" fill="#FFA07F"/>
<path d="M137.759 113.126L137.591 113.336L142.909 117.609L143.077 117.399L137.759 113.126Z" fill="#FFA07F"/>
<path d="M152.893 133.631C149.312 128.259 146.674 124.266 146.674 124.266L155.531 117.319L161.691 123.792L152.893 133.631Z" fill="#CE101D"/>
<path d="M168.608 131.058C167.93 132.342 167.277 133.637 166.701 134.963C165.582 137.538 164.744 140.246 163.339 142.676C162.703 143.793 161.916 144.817 161.001 145.719C159.262 143.147 157.484 140.499 155.8 137.981L162.402 129.987C163.19 129.031 163.997 128 164.665 126.916L168.608 131.058Z" fill="#CE101D"/>
<path d="M249.807 168.41C248.311 170.436 246.842 172.406 245.577 174.096H240.312L232.555 167.604L239.203 158.253C241.399 161.68 245.943 168 249.807 168.41Z" fill="#CE101D"/>
<path d="M258.884 155.504C257.804 157.372 254.799 161.596 251.599 165.97C250.475 163.542 246.854 159.517 241.681 154.769L243.265 152.493C247.643 154.057 253.998 156.17 258.884 155.504Z" fill="#CE101D"/>
<path d="M217.988 96.0079C215.513 97.477 212.505 97.7982 209.635 97.5673C207.816 97.4213 206.023 97.07 204.233 96.7005C204.623 96.6367 205.007 96.5415 205.382 96.4158C205.728 96.304 206.049 96.1261 206.326 95.892C210.196 96.3899 214.11 96.4288 217.988 96.0079Z" fill="#270A04"/>
<path d="M224.437 58.5014L224.096 58.297C225.001 56.7896 224.917 54.6707 223.896 53.0246C222.983 51.5646 221.374 50.4769 219.476 50.0498C217.902 49.6967 216.129 49.7569 214.057 50.2323C209.957 51.1768 206.638 53.3257 204.712 56.2831L204.379 56.065C206.362 53.0219 209.763 50.8118 213.968 49.8445C216.099 49.3536 217.93 49.297 219.563 49.662C221.563 50.1119 223.266 51.2607 224.234 52.8147C225.336 54.5841 225.418 56.869 224.437 58.5014Z" fill="#3D2027"/>
<path d="M230.019 59.5362C229.977 59.0449 229.829 58.5685 229.585 58.1398C229.342 57.7111 229.008 57.3401 228.608 57.0524C227.486 56.2558 225.541 56.0222 223.723 57.296L223.513 56.9976C225.477 55.6207 227.593 55.8835 228.819 56.7549C229.262 57.0736 229.632 57.4846 229.902 57.9597C230.172 58.4347 230.337 58.9625 230.384 59.507L230.019 59.5362Z" fill="#3D2027"/>
<path d="M227.75 70.5437C227.531 71.2107 227.334 71.8914 226.672 72.24C225.942 72.6233 225.293 73.1525 224.665 73.6936C225.065 73.3469 222.692 69.007 222.406 68.4276C221.551 66.7091 220.979 64.8637 220.712 62.9626C220.588 62.0364 220.554 60.8639 220.315 60.0426C220.126 60.2105 219.939 60.38 219.754 60.5509C220.058 60.0591 220.343 59.5599 220.71 59.0909C221.103 58.5854 222.724 57.8618 222.809 57.3362C222.386 60.0162 223.029 62.2117 223.473 64.8369C223.827 66.9293 224.488 69.3602 226.702 70.2864C227.038 70.4215 227.39 70.5081 227.75 70.5437Z" fill="#270A04"/>
<path d="M207.991 61.0254C205.87 62.2928 202.945 62.0291 201.086 60.4021C200.555 59.9563 200.14 59.3896 199.874 58.7496C199.555 57.9284 199.57 57.0104 199.679 56.1316C199.829 54.8458 200.22 53.6 200.833 52.4598C200.978 52.225 201.135 51.9981 201.304 51.7799C201.352 52.0258 201.451 52.259 201.594 52.4643C201.34 52.9236 201.143 53.4124 201.008 53.9197C200.711 55.0007 200.738 56.1451 201.085 57.2111C202.013 59.9422 205.184 61.6942 207.991 61.0254Z" fill="#270A04"/>
<path d="M204.784 133.598L202.727 133.492C202.237 130.671 202.029 127.808 202.106 124.946C202.783 127.893 203.678 130.785 204.784 133.598Z" fill="#270A04"/>
<g opacity="0.4">
<path d="M212.773 147.689C206.31 146.113 203.735 139.266 202.723 133.492L204.781 133.598C208.311 142.566 212.773 147.689 212.773 147.689Z" fill="#270A04"/>
</g>
<path d="M153.072 201.723H203.286V185.444H153.072V201.723Z" fill="#00433B"/>
<path d="M101.668 207.509H254.694C254.694 205.528 253.907 203.629 252.507 202.228C251.106 200.827 249.206 200.04 247.226 200.04H109.137C107.156 200.04 105.256 200.827 103.856 202.228C102.455 203.628 101.668 205.528 101.668 207.509Z" fill="#006C60"/>
<path d="M174.792 64.3788L161.039 57.5871L166.917 51.3949L174.792 64.3788Z" fill="#FFA81B"/>
<path d="M175.462 69.3164L166.945 73.8259L165.681 68.6712L175.462 69.3164Z" fill="#FFA81B"/>
<path d="M180.87 61.5017L177.197 51.9542L181.883 50.632L180.87 61.5017Z" fill="#FFA81B"/>
<path d="M82.93 81.6579C82.0805 82.1251 81.0193 82.7046 80.0101 83.2566C79.5629 83.5001 79.0707 83.6495 78.5636 83.6956C78.0566 83.7417 77.5455 83.6836 77.0618 83.5248C76.578 83.3659 76.1319 83.1098 75.7509 82.7721C75.3699 82.4344 75.062 82.0223 74.8462 81.5612L65.6592 61.9215C65.2576 61.0632 65.1977 60.0842 65.4916 59.1833C65.7854 58.2824 66.411 57.5271 67.2414 57.0706L105.749 35.9079C106.184 35.6691 106.662 35.5194 107.155 35.4675C107.648 35.4156 108.147 35.4626 108.622 35.6058C109.097 35.749 109.539 35.9854 109.921 36.3013C110.304 36.6172 110.619 37.0062 110.85 37.4455L122.158 59.0133C122.391 59.4575 122.532 59.9441 122.573 60.444C122.613 60.9439 122.553 61.4469 122.394 61.9228C122.236 62.3987 121.984 62.8379 121.652 63.2139C121.32 63.59 120.916 63.8952 120.463 64.1115L96.4953 75.5661C95.628 75.9804 94.9542 76.7134 94.6142 77.6124C94.2742 78.5113 94.2942 79.5069 94.6703 80.3914L97.4871 87.0207L86.3693 81.5776C85.8318 81.3135 85.2385 81.1828 84.6398 81.1968C84.0411 81.2108 83.4546 81.369 82.93 81.6579Z" fill="white"/>
<path d="M97.479 87.6676C97.3803 87.668 97.2828 87.6455 97.1943 87.6019L86.0846 82.157C85.6401 81.9395 85.1499 81.8321 84.6551 81.8439C84.1604 81.8556 83.6758 81.9862 83.2422 82.2246C82.4976 82.6343 81.5084 83.1727 80.3158 83.8242C79.7911 84.1096 79.2135 84.2846 78.6187 84.3386C78.0238 84.3926 77.4242 84.3243 76.8567 84.138C76.2892 83.9517 75.7658 83.6512 75.3187 83.2552C74.8716 82.8591 74.5102 82.3758 74.2568 81.8349L65.0688 62.1952C64.6003 61.1877 64.5315 60.04 64.8761 58.9838C65.2208 57.9275 65.9533 57.0413 66.9258 56.504L105.429 35.3413C105.939 35.0611 106.5 34.8855 107.079 34.8246C107.658 34.7637 108.243 34.8189 108.8 34.9867C109.357 35.1546 109.876 35.4319 110.325 35.8023C110.773 36.1728 111.144 36.629 111.415 37.1444L122.723 58.7122C122.996 59.2336 123.161 59.8047 123.209 60.3913C123.256 60.978 123.185 61.5681 122.999 62.1266C122.813 62.6851 122.517 63.2004 122.128 63.6418C121.738 64.0831 121.264 64.4415 120.733 64.6955L96.7654 76.1501C96.0477 76.4913 95.4898 77.097 95.2087 77.8403C94.9275 78.5836 94.9449 79.4069 95.257 80.1377L98.0739 86.7679C98.1157 86.8662 98.1324 86.9734 98.1226 87.0797C98.1129 87.1861 98.077 87.2884 98.018 87.3775C97.9591 87.4666 97.8791 87.5397 97.785 87.5904C97.6909 87.641 97.5858 87.6675 97.479 87.6676ZM84.7277 80.5501C85.3954 80.5501 86.0543 80.7027 86.654 80.9964L96.2042 85.6766L94.0662 80.645C93.6246 79.6079 93.6008 78.4401 93.9999 77.3858C94.399 76.3315 95.1901 75.4723 96.2079 74.9875L120.176 63.5329C120.55 63.3542 120.884 63.1019 121.158 62.7911C121.432 62.4803 121.641 62.1173 121.772 61.7239C121.903 61.3305 121.953 60.9148 121.92 60.5016C121.886 60.0884 121.77 59.6862 121.577 59.319L110.269 37.7457C110.078 37.3824 109.817 37.0607 109.501 36.7995C109.185 36.5383 108.82 36.3429 108.427 36.2246C108.034 36.1063 107.622 36.0676 107.214 36.1106C106.806 36.1537 106.411 36.2778 106.052 36.4755L67.549 57.6382C66.8639 58.0165 66.3478 58.6407 66.1051 59.3848C65.8624 60.1288 65.9111 60.9373 66.2414 61.6468L75.4284 81.2865C75.6068 81.6678 75.8613 82.0084 76.1763 82.2876C76.4912 82.5668 76.86 82.7785 77.2599 82.9098C77.6598 83.0411 78.0823 83.0892 78.5014 83.051C78.9206 83.0129 79.3275 82.8894 79.6971 82.6881C80.8925 82.0366 81.8752 81.5019 82.6171 81.0903C83.2637 80.7348 83.9898 80.5487 84.7277 80.5492V80.5501Z" fill="#00433B"/>
<path d="M89.5238 60.6357L89.5037 60.6467L88.5593 61.9041L87.6997 60.8812L89.0192 59.1548L90.2967 58.485L93.7514 65.0787L92.2604 65.8598L89.5238 60.6357Z" fill="#EF772C"/>
<path d="M95.152 57.6857L95.132 57.6966L94.1875 58.954L93.327 57.9302L94.6465 56.2047L95.924 55.5349L99.3787 62.1286L97.8877 62.9097L95.152 57.6857Z" fill="#EF772C"/>
<path d="M101.554 60.9907L101.065 60.0572L101.513 58.84C102.278 56.7969 102.59 55.6891 102.206 54.908C101.925 54.3705 101.376 54.1141 100.615 54.5129C100.048 54.8104 99.7027 55.3551 99.4928 55.7995L98.4772 54.9226C98.7774 54.2838 99.3897 53.5785 100.281 53.1104C101.773 52.3293 103.052 52.7709 103.678 53.9681C104.258 55.0741 103.919 56.3762 103.412 57.7276L103.07 58.5543L103.08 58.5744L105.565 57.2723L106.23 58.5397L101.554 60.9907Z" fill="#EF772C"/>
<path d="M88.0273 74.6654C87.8718 74.6652 87.7216 74.6092 87.6039 74.5076C84.6447 71.9416 80.0493 67.9923 79.5192 67.631L80.2492 66.5615C80.7967 66.9375 84.433 70.0582 86.6978 72.0128L81.9866 57.4739C81.9425 57.3386 81.9444 57.1925 81.992 57.0584C82.0395 56.9242 82.13 56.8095 82.2494 56.7321L101.987 43.916L102.692 45.0019L83.3699 57.5469L88.6432 73.8214C88.6748 73.9185 88.6829 74.0218 88.6669 74.1226C88.6509 74.2235 88.6112 74.3192 88.5511 74.4018C88.491 74.4844 88.4122 74.5516 88.3212 74.5979C88.2302 74.6442 88.1294 74.6683 88.0273 74.6682V74.6654Z" fill="#EF772C"/>
<path d="M306.693 207.943V214.918C306.693 216.001 306.263 217.039 305.497 217.805C304.731 218.57 303.693 219 302.611 219H28.1609C27.0783 219 26.04 218.57 25.2744 217.805C24.5088 217.039 24.0786 216.001 24.0784 214.918V207.943C24.0784 206.86 24.5085 205.822 25.2741 205.056C26.0397 204.29 27.0781 203.86 28.1609 203.86H302.611C303.693 203.86 304.732 204.29 305.497 205.056C306.263 205.822 306.693 206.86 306.693 207.943Z" fill="#CEAA91"/>
<path d="M306.693 207.943V209.434H24.0784V207.943C24.0784 206.86 24.5085 205.822 25.2741 205.056C26.0397 204.29 27.0781 203.86 28.1609 203.86H302.611C303.693 203.86 304.732 204.29 305.497 205.056C306.263 205.822 306.693 206.86 306.693 207.943Z" fill="#9B7962"/>
<path d="M73.9392 87.5107L26.3423 102.682L26.0257 102.782L17.0494 105.639L16.5329 105.804L16.3833 105.441L23.6641 94.9649L24.1569 94.2568L60.7727 41.5782L72.3633 81.3212L72.5312 81.98L73.9392 87.5107Z" fill="#F1D5B8"/>
<path d="M16.5331 106.352C16.4292 106.351 16.3279 106.319 16.2423 106.26C16.1566 106.201 16.0905 106.118 16.0522 106.022L15.9025 105.657C15.8666 105.569 15.853 105.474 15.8631 105.38C15.8731 105.286 15.9064 105.195 15.96 105.117L23.7336 93.9319L60.3495 41.2561C60.4045 41.1747 60.4817 41.1109 60.572 41.0722C60.6623 41.0336 60.7618 41.0217 60.8586 41.038C60.9563 41.0565 61.0469 41.1019 61.1201 41.1691C61.1933 41.2364 61.2462 41.3228 61.2729 41.4185L72.8617 81.1606L72.8671 81.1798L74.443 87.3701C74.4802 87.505 74.4643 87.649 74.3986 87.7726C74.333 87.8961 74.2225 87.9898 74.0899 88.0344L26.1782 103.306L16.6882 106.328C16.6381 106.344 16.5857 106.352 16.5331 106.352ZM60.5785 42.7873L24.5795 94.5789L17.358 104.97L26.1901 102.158L73.3042 87.1438L71.8606 81.4745L60.5785 42.7873Z" fill="#CEAA91"/>
<path d="M66.9266 82.9829L72.3633 81.3212L72.5312 81.98L67.7214 83.451L69.1577 89.0473L69.1604 89.0574L68.8584 89.1422L68.842 89.1468L68.5317 89.2344L66.9266 82.9829Z" fill="#CEAA91"/>
<path d="M16.2291 109.517L14.3959 109.318L11.8555 115.59L13.3063 115.75L13.9141 114.136L15.6852 114.33L15.9964 116.045L17.4984 116.207L16.2291 109.517ZM14.2216 113.058L14.7262 111.725C14.864 111.36 15.0054 110.88 15.135 110.506H15.1532C15.2071 110.901 15.27 111.394 15.3421 111.79L15.5894 113.206L14.2216 113.058Z" fill="#CEAA91"/>
<path d="M75.4192 94.8919V94.8718C76.1328 94.6829 76.5033 94.1865 76.5598 93.618C76.5888 93.362 76.5475 93.1029 76.4405 92.8686C76.3334 92.6342 76.1646 92.4334 75.9521 92.2876C75.5369 91.9646 75.0287 91.8213 74.1883 91.7301C73.4993 91.6544 72.7611 91.6315 72.3915 91.668L71.7646 97.9387C72.2522 98.0611 72.7481 98.1475 73.2484 98.197C74.4611 98.3302 75.2239 98.2034 75.7039 97.8822C75.9205 97.7396 76.1022 97.5499 76.2352 97.3272C76.3682 97.1046 76.4493 96.8548 76.4722 96.5964C76.5571 95.7725 76.0963 95.1666 75.4192 94.8919ZM73.6636 92.774C73.8614 92.7663 74.0595 92.7752 74.2558 92.8005C74.8799 92.8689 75.2084 93.1655 75.1601 93.6473C75.1117 94.1291 74.6919 94.39 73.9674 94.3106L73.5112 94.2605L73.6636 92.774ZM73.7649 97.1704C73.5858 97.1558 73.4078 97.1302 73.232 97.0938L73.4145 95.2934L73.8853 95.3445C74.5733 95.4202 75.0989 95.7378 75.0351 96.3802C74.9648 97.0536 74.389 97.2388 73.7649 97.1704Z" fill="#CEAA91"/>
<path d="M65.5341 39.7304C64.2812 39.6556 63.5886 38.7905 63.6598 37.4875C63.7392 36.0402 64.6435 35.3887 65.7585 35.4553C66.1648 35.477 66.562 35.5833 66.9247 35.7674L67.2751 34.6158C67.0333 34.4662 66.4885 34.2782 65.7613 34.2344C63.8797 34.1222 62.3002 35.2673 62.1788 37.4875C62.0775 39.3398 63.1077 40.8044 65.2557 40.9331C66.0122 40.9787 66.5989 40.8683 66.8654 40.7506L66.7157 39.5899C66.3333 39.7063 65.9332 39.7539 65.5341 39.7304Z" fill="#CEAA91"/>
<path d="M293.988 76.5313L290.103 77.1265L294.59 106.415L298.475 105.82L293.988 76.5313Z" fill="#006C60"/>
<path d="M293.986 76.5297L290.1 77.1246L290.955 74.1572L291.095 73.6763C291.121 73.5824 291.174 73.4981 291.247 73.4335C291.32 73.3688 291.41 73.3266 291.506 73.3119C291.602 73.2972 291.701 73.3105 291.79 73.3504C291.879 73.3903 291.954 73.4549 292.007 73.5367L292.281 73.9546L293.986 76.5297Z" fill="#F1D5B8"/>
<path d="M298.148 103.693L294.263 104.288L294.589 106.416L298.474 105.821L298.148 103.693Z" fill="#1E1E1E"/>
<path d="M294.594 106.399L298.479 105.804L298.722 107.392C298.726 107.42 298.719 107.45 298.702 107.473C298.685 107.496 298.659 107.512 298.63 107.516L294.962 108.078C294.933 108.083 294.904 108.076 294.88 108.059C294.857 108.041 294.841 108.016 294.837 107.987L294.594 106.399Z" fill="#828282"/>
<path d="M292.284 73.9546L290.958 74.1572L291.098 73.6763C291.124 73.5824 291.177 73.4981 291.249 73.4335C291.322 73.3688 291.412 73.3266 291.509 73.3119C291.605 73.2972 291.704 73.3105 291.793 73.3504C291.882 73.3903 291.957 73.4549 292.01 73.5367L292.284 73.9546Z" fill="#1E1E1E"/>
<path d="M297.917 102.155L294.032 102.751L294.266 104.277L298.151 103.682L297.917 102.155Z" fill="#1E1E1E"/>
<path d="M301.017 76.6464L297.087 76.6594L297.185 106.29L301.116 106.277L301.017 76.6464Z" fill="#00433B"/>
<path d="M301.012 76.6647L297.082 76.6775L298.367 73.8697L298.576 73.4135C298.617 73.3257 298.682 73.2513 298.764 73.1992C298.845 73.1471 298.94 73.1194 299.037 73.1194C299.133 73.1194 299.228 73.1471 299.31 73.1992C299.391 73.2513 299.456 73.3257 299.497 73.4135L299.709 73.8697L301.012 76.6647Z" fill="#F1D5B8"/>
<path d="M301.109 104.124L297.179 104.137L297.186 106.29L301.116 106.277L301.109 104.124Z" fill="#1E1E1E"/>
<path d="M297.186 106.283L301.117 106.27L301.122 107.877C301.122 107.906 301.11 107.934 301.09 107.955C301.07 107.975 301.042 107.987 301.013 107.987L297.302 107.999C297.273 108 297.245 107.988 297.224 107.968C297.203 107.947 297.192 107.919 297.192 107.89L297.186 106.283Z" fill="#828282"/>
<path d="M299.709 73.8652H298.368L298.577 73.4089C298.617 73.3211 298.682 73.2467 298.764 73.1946C298.845 73.1425 298.94 73.1148 299.037 73.1148C299.134 73.1148 299.228 73.1425 299.31 73.1946C299.392 73.2467 299.457 73.3211 299.497 73.4089L299.709 73.8652Z" fill="#1E1E1E"/>
<path d="M301.104 102.58L297.174 102.593L297.179 104.137L301.109 104.124L301.104 102.58Z" fill="#2E2E2E"/>
<path d="M307.783 77.1037L303.892 76.5506L299.722 105.886L303.613 106.439L307.783 77.1037Z" fill="#006C60"/>
<path d="M307.794 77.0817L303.902 76.5287L305.578 73.9354L305.852 73.5148C305.904 73.4332 305.979 73.3685 306.067 73.3282C306.156 73.2879 306.253 73.2737 306.349 73.2874C306.446 73.301 306.536 73.3419 306.609 73.4051C306.683 73.4684 306.736 73.5514 306.764 73.6443L306.908 74.1243L307.794 77.0817Z" fill="#F1D5B8"/>
<path d="M303.916 104.309L300.025 103.756L299.722 105.887L303.613 106.44L303.916 104.309Z" fill="#1E1E1E"/>
<path d="M299.725 105.882L303.616 106.435L303.39 108.025C303.386 108.053 303.371 108.079 303.348 108.097C303.325 108.114 303.295 108.122 303.267 108.118L299.592 107.595C299.564 107.591 299.538 107.576 299.52 107.553C299.503 107.53 299.495 107.5 299.499 107.472L299.725 105.882Z" fill="#828282"/>
<path d="M306.906 74.1243L305.578 73.9354L305.852 73.5148C305.904 73.4332 305.979 73.3685 306.067 73.3282C306.156 73.2879 306.254 73.2737 306.35 73.2874C306.446 73.301 306.536 73.3419 306.609 73.4051C306.683 73.4684 306.737 73.5514 306.764 73.6443L306.906 74.1243Z" fill="#1E1E1E"/>
<path d="M300.281 102.221L300.064 103.75L303.955 104.303L304.173 102.774L300.281 102.221Z" fill="#4A4A4A"/>
<path d="M309.069 88.3849L308.865 89.9744L308.678 91.418L308.395 93.6098L308.212 95.037L307.927 97.247L307.743 98.656L307.456 100.884L307.277 102.273L306.986 104.52L306.81 105.893L306.518 108.157L306.342 109.512L306.191 110.684H290.745L290.595 109.512L290.419 108.157L290.126 105.893L289.951 104.52L289.66 102.273L289.481 100.884L289.193 98.656L289.01 97.247L288.725 95.037L288.542 93.6098L288.258 91.418L288.072 89.9744L287.867 88.3849H309.069Z" fill="#EF772C"/>
<path d="M308.395 93.6098L308.212 95.037H288.725L288.542 93.6098H308.395Z" fill="#FFAE41"/>
<path d="M307.456 100.884L307.277 102.273H289.659L289.481 100.884H307.456Z" fill="#FFAE41"/>
<path d="M306.986 104.52L306.81 105.893H290.126L289.951 104.52H306.986Z" fill="#FFAE41"/>
<path d="M328.928 116.344H281.826V110.327H327.345C327.93 112.363 328.458 114.369 328.928 116.344Z" fill="#CEAA91"/>
<path d="M289.523 116.343L291.922 121.451H302.292L304.48 116.343H289.523Z" fill="#9B7962"/>
<path d="M239.22 193.1V202.762H237.097V204.372H300.223C303.136 204.372 305.497 202.464 305.497 200.109V195.751C305.497 193.396 303.136 191.488 300.223 191.488H237.097V193.1H239.22Z" fill="#CE101D"/>
<path d="M239.221 193.1V202.758H300.575C302.126 202.758 303.387 201.739 303.387 200.485V195.37C303.385 195.009 303.283 194.656 303.091 194.351C302.628 193.607 301.676 193.096 300.575 193.096L239.221 193.1Z" fill="#F1D5B8"/>
<path d="M303.387 195.23H239.22V195.704H303.387V195.23Z" fill="#FEEAD2"/>
<path d="M303.387 197.788H239.22V198.262H303.387V197.788Z" fill="#FEEAD2"/>
<path d="M303.387 199.446H239.22V199.92H303.387V199.446Z" fill="#FEEAD2"/>
<g opacity="0.17">
<path d="M239.221 201.14V202.757H300.575C302.126 202.757 303.387 201.739 303.387 200.485V195.37C303.385 195.009 303.283 194.656 303.091 194.351C300.57 197.801 293.601 201.136 276.089 201.136L239.221 201.14Z" fill="#3A3A3A"/>
</g>
<path d="M293.112 198.262V205.248L290.566 203.371L288.529 205.123V198.262H293.112Z" fill="#FFAE41"/>
<path d="M291.599 190.088V183.23H293.105V182.088H248.342C246.277 182.088 244.601 183.442 244.601 185.113V188.204C244.601 189.875 246.276 191.229 248.342 191.229H293.105V190.086L291.599 190.088Z" fill="#EF772C"/>
<path d="M246.098 184.846V188.475C246.098 189.368 246.99 190.088 248.092 190.088H291.599V183.23H248.092C246.992 183.23 246.098 183.955 246.098 184.846Z" fill="#F1D5B8"/>
<path d="M291.6 188.241H246.099V188.576H291.6V188.241Z" fill="#FEEAD2"/>
<path d="M291.6 186.426H246.099V186.761H291.6V186.426Z" fill="#FEEAD2"/>
<path d="M291.6 185.249H246.099V185.585H291.6V185.249Z" fill="#FEEAD2"/>
<g opacity="0.17">
<path d="M246.098 188.408V188.475C246.098 189.367 246.99 190.088 248.092 190.088H291.599V183.72C287.889 186.254 281.123 188.408 268.849 188.408H246.098Z" fill="#3A3A3A"/>
</g>
<path d="M297.222 180.226V170.582H299.024V168.975H245.482C243.011 168.975 241.011 170.879 241.011 173.23V177.579C241.011 179.93 243.014 181.834 245.482 181.834H299.024V180.226H297.222Z" fill="#FFAE41"/>
<path d="M242.794 172.851V177.956C242.794 179.211 243.862 180.225 245.181 180.225H297.22V170.583H245.183C243.865 170.583 242.794 171.598 242.794 172.851Z" fill="#F1D5B8"/>
<path d="M297.222 177.626H242.797V178.099H297.222V177.626Z" fill="#FEEAD2"/>
<path d="M297.222 175.073H242.797V175.546H297.222V175.073Z" fill="#FEEAD2"/>
<path d="M297.222 173.419H242.797V173.891H297.222V173.419Z" fill="#FEEAD2"/>
<g opacity="0.17">
<path d="M242.794 177.863V177.954C242.794 179.21 243.862 180.223 245.181 180.223H297.22V171.267C292.781 174.831 284.688 177.863 270.008 177.863H242.794Z" fill="#3A3A3A"/>
</g>
</svg>
