<svg xmlns="http://www.w3.org/2000/svg" width="1920" height="1920" viewBox="0 0 1920 1920" version="1.1"><path d="M 0 960.001 L 0 1920.001 960.250 1919.751 L 1920.500 1919.500 1920.751 959.750 L 1921.001 -0 960.501 -0 L 0 0 0 960.001 M 0.498 960.500 C 0.498 1488.500, 0.611 1704.350, 0.750 1440.167 C 0.889 1175.985, 0.889 743.985, 0.750 480.167 C 0.611 216.350, 0.498 432.500, 0.498 960.500 M 921.500 401.657 C 802.566 404.703, 685.068 446.695, 588.952 520.503 C 562.044 541.166, 528.310 572.841, 506.416 598 C 431.492 684.101, 383.595 790.144, 369.557 901 C 365.980 929.252, 365.501 938.180, 365.529 976 C 365.558 1015.017, 366.319 1027.233, 370.577 1057 C 386.814 1170.516, 437.283 1276.807, 515.609 1362.447 C 584.539 1437.813, 674.406 1494.542, 771.500 1523.979 C 811.571 1536.128, 846.697 1542.803, 893.500 1547.162 C 913.120 1548.990, 967.861 1548.679, 988.500 1546.623 C 1054.880 1540.012, 1108.792 1526.275, 1168 1500.888 C 1178.349 1496.451, 1208.555 1481.260, 1220.388 1474.543 C 1291.746 1434.031, 1355.473 1377.017, 1403.185 1311 C 1451.264 1244.476, 1484.223 1169.377, 1500.890 1088.372 C 1512.235 1033.231, 1514.922 969.081, 1508.361 910 C 1506.119 889.808, 1505.419 888.506, 1499.443 893.419 C 1495.421 896.725, 1454.712 929.689, 1431.500 948.436 C 1421.050 956.875, 1407.100 968.154, 1400.500 973.499 C 1393.900 978.845, 1387.988 984.182, 1387.363 985.359 C 1386.737 986.537, 1385.705 996.050, 1385.068 1006.500 C 1382.077 1055.624, 1374.205 1094.029, 1358.217 1137.500 C 1352.078 1154.192, 1337.248 1185.901, 1329.221 1199.500 C 1328.247 1201.150, 1326.135 1204.750, 1324.529 1207.500 C 1309.916 1232.510, 1285.897 1263.763, 1263.600 1286.781 C 1195.726 1356.847, 1105.269 1402.811, 1006.344 1417.500 C 965.126 1423.620, 912.560 1423.633, 872 1417.532 C 788.999 1405.047, 710.134 1368.753, 646.396 1313.710 C 544.222 1225.473, 487.335 1096.583, 491.385 962.500 C 492.202 935.464, 494.402 914.721, 499.020 890.500 C 531.787 718.650, 663.313 580.678, 833 540.151 C 879.042 529.154, 931.585 525.296, 978 529.504 C 1094.200 540.038, 1199.493 594.042, 1276.595 682.650 C 1287.999 695.756, 1290.141 697.617, 1292.340 696.325 C 1292.978 695.950, 1308.800 684.106, 1327.500 670.003 C 1393.268 620.405, 1389.495 623.502, 1388.239 620.135 C 1387.904 619.236, 1383.103 613.110, 1377.571 606.522 C 1330.867 550.905, 1274.790 505.153, 1210.500 470.209 C 1122.916 422.606, 1023.576 399.042, 921.500 401.657 M 1692.346 517.930 C 1683.419 520.340, 1663.353 529.317, 1628.500 546.494 C 1514.512 602.671, 1390.033 686.588, 1257 796.937 C 1228.968 820.190, 1196.321 848.229, 1176.500 866.078 C 1133.048 905.205, 1117.995 919.117, 1083.530 952 C 1056.723 977.576, 994.280 1039.932, 970.879 1064.493 C 964.071 1071.639, 955.552 1080.569, 951.950 1084.338 L 945.400 1091.192 936.478 1078.346 C 906.780 1035.584, 855.492 969.411, 828.069 938.474 C 826.106 936.259, 822.025 931.549, 819 928.006 C 806.028 912.814, 790.352 896.225, 785.130 892.164 C 778.513 887.018, 770.941 883.041, 761.967 879.996 C 752.728 876.862, 733.709 876.089, 723.749 878.444 C 714.424 880.648, 699.958 887.670, 693.229 893.258 C 669.196 913.218, 660.123 945.208, 670.188 974.500 C 673.764 984.907, 678.838 992.642, 691.359 1006.776 C 761.089 1085.489, 819.770 1163.937, 860.955 1233.500 C 873.316 1254.378, 877.504 1260.307, 884.539 1266.887 C 898.891 1280.313, 914.425 1286.365, 934.500 1286.354 C 948.147 1286.346, 955.475 1284.778, 966.500 1279.508 C 977.255 1274.366, 984.783 1267.950, 999.235 1251.605 C 1093.603 1144.876, 1229.029 1013.484, 1343 918.078 C 1485.048 799.170, 1609.825 716.453, 1728.537 662.497 C 1738.617 657.915, 1749.524 652.360, 1752.773 650.154 C 1766.201 641.035, 1777.894 624.361, 1782.085 608.355 C 1784.743 598.201, 1784.943 581.321, 1782.515 572 C 1776.045 547.159, 1757.415 527.129, 1733.521 519.322 C 1722.459 515.707, 1703.013 515.050, 1692.346 517.930" stroke="none" fill="#ffffff" fill-rule="evenodd"/><path d="M 921.500 401.657 C 802.566 404.703, 685.068 446.695, 588.952 520.503 C 562.044 541.166, 528.310 572.841, 506.416 598 C 431.492 684.101, 383.595 790.144, 369.557 901 C 365.980 929.252, 365.501 938.180, 365.529 976 C 365.558 1015.017, 366.319 1027.233, 370.577 1057 C 386.814 1170.516, 437.283 1276.807, 515.609 1362.447 C 584.539 1437.813, 674.406 1494.542, 771.500 1523.979 C 811.571 1536.128, 846.697 1542.803, 893.500 1547.162 C 913.120 1548.990, 967.861 1548.679, 988.500 1546.623 C 1054.880 1540.012, 1108.792 1526.275, 1168 1500.888 C 1178.349 1496.451, 1208.555 1481.260, 1220.388 1474.543 C 1291.746 1434.031, 1355.473 1377.017, 1403.185 1311 C 1451.264 1244.476, 1484.223 1169.377, 1500.890 1088.372 C 1512.235 1033.231, 1514.922 969.081, 1508.361 910 C 1506.119 889.808, 1505.419 888.506, 1499.443 893.419 C 1495.421 896.725, 1454.712 929.689, 1431.500 948.436 C 1421.050 956.875, 1407.100 968.154, 1400.500 973.499 C 1393.900 978.845, 1387.988 984.182, 1387.363 985.359 C 1386.737 986.537, 1385.705 996.050, 1385.068 1006.500 C 1382.077 1055.624, 1374.205 1094.029, 1358.217 1137.500 C 1352.078 1154.192, 1337.248 1185.901, 1329.221 1199.500 C 1328.247 1201.150, 1326.135 1204.750, 1324.529 1207.500 C 1309.916 1232.510, 1285.897 1263.763, 1263.600 1286.781 C 1195.726 1356.847, 1105.269 1402.811, 1006.344 1417.500 C 965.126 1423.620, 912.560 1423.633, 872 1417.532 C 788.999 1405.047, 710.134 1368.753, 646.396 1313.710 C 544.222 1225.473, 487.335 1096.583, 491.385 962.500 C 492.202 935.464, 494.402 914.721, 499.020 890.500 C 531.787 718.650, 663.313 580.678, 833 540.151 C 879.042 529.154, 931.585 525.296, 978 529.504 C 1094.200 540.038, 1199.493 594.042, 1276.595 682.650 C 1287.999 695.756, 1290.141 697.617, 1292.340 696.325 C 1292.978 695.950, 1308.800 684.106, 1327.500 670.003 C 1393.268 620.405, 1389.495 623.502, 1388.239 620.135 C 1387.904 619.236, 1383.103 613.110, 1377.571 606.522 C 1330.867 550.905, 1274.790 505.153, 1210.500 470.209 C 1122.916 422.606, 1023.576 399.042, 921.500 401.657 M 1692.346 517.930 C 1683.419 520.340, 1663.353 529.317, 1628.500 546.494 C 1514.512 602.671, 1390.033 686.588, 1257 796.937 C 1228.968 820.190, 1196.321 848.229, 1176.500 866.078 C 1133.048 905.205, 1117.995 919.117, 1083.530 952 C 1056.723 977.576, 994.280 1039.932, 970.879 1064.493 C 964.071 1071.639, 955.552 1080.569, 951.950 1084.338 L 945.400 1091.192 936.478 1078.346 C 906.780 1035.584, 855.492 969.411, 828.069 938.474 C 826.106 936.259, 822.025 931.549, 819 928.006 C 806.028 912.814, 790.352 896.225, 785.130 892.164 C 778.513 887.018, 770.941 883.041, 761.967 879.996 C 752.728 876.862, 733.709 876.089, 723.749 878.444 C 714.424 880.648, 699.958 887.670, 693.229 893.258 C 669.196 913.218, 660.123 945.208, 670.188 974.500 C 673.764 984.907, 678.838 992.642, 691.359 1006.776 C 761.089 1085.489, 819.770 1163.937, 860.955 1233.500 C 873.316 1254.378, 877.504 1260.307, 884.539 1266.887 C 898.891 1280.313, 914.425 1286.365, 934.500 1286.354 C 948.147 1286.346, 955.475 1284.778, 966.500 1279.508 C 977.255 1274.366, 984.783 1267.950, 999.235 1251.605 C 1093.603 1144.876, 1229.029 1013.484, 1343 918.078 C 1485.048 799.170, 1609.825 716.453, 1728.537 662.497 C 1738.617 657.915, 1749.524 652.360, 1752.773 650.154 C 1766.201 641.035, 1777.894 624.361, 1782.085 608.355 C 1784.743 598.201, 1784.943 581.321, 1782.515 572 C 1776.045 547.159, 1757.415 527.129, 1733.521 519.322 C 1722.459 515.707, 1703.013 515.050, 1692.346 517.930" stroke="none" fill="#6cbb3d" fill-rule="evenodd"/></svg>