<svg width="296" height="219" viewBox="0 0 296 219" fill="none" xmlns="http://www.w3.org/2000/svg">
<path d="M256.147 182.756C256.147 182.756 372.447 44.4294 203.022 40.8917C192.344 40.6708 181.861 37.9902 172.389 33.0582C103.343 -2.90156 15.9814 -17.6883 8.65752 73.04C11.2779 121.62 50.5791 128.171 23.0685 144.983C-4.44204 161.796 -13.0664 187.559 29.5097 193.563C72.0858 199.567 72.3039 199.568 72.3039 199.568C72.3039 199.568 201.783 237.122 256.147 182.756Z" fill="#FFD1AC"/>
<mask id="mask0_578_2914" style="mask-type:luminance" maskUnits="userSpaceOnUse" x="0" y="5" width="296" height="208">
<path d="M256.146 182.756C256.146 182.756 372.447 44.4294 203.021 40.8917C192.344 40.6709 181.861 37.9902 172.388 33.0582C103.343 -2.90152 15.9811 -17.6882 8.65728 73.04C11.2777 121.62 50.5789 128.171 23.0683 144.983C-4.44228 161.796 -13.0667 187.559 29.5094 193.563C72.0855 199.567 72.3037 199.568 72.3037 199.568C72.3037 199.568 201.783 237.122 256.146 182.756Z" fill="white"/>
</mask>
<g mask="url(#mask0_578_2914)">
<path d="M63.8435 229.589C106.139 229.589 140.426 203.22 140.426 170.692C140.426 138.164 106.139 111.794 63.8435 111.794C21.5481 111.794 -12.739 138.164 -12.739 170.692C-12.739 203.22 21.5481 229.589 63.8435 229.589Z" fill="#FFEDDE"/>
<path d="M207.402 209.175C249.697 209.175 283.985 182.806 283.985 150.278C283.985 117.75 249.697 91.3803 207.402 91.3803C165.107 91.3803 130.819 117.75 130.819 150.278C130.819 182.806 165.107 209.175 207.402 209.175Z" fill="#FFEDDE"/>
</g>
<path d="M30.9542 219L256.34 219C267.689 219 276.889 209.8 276.889 198.451V189.112C276.889 177.764 267.689 168.564 256.34 168.564L30.9542 168.564C19.6053 168.564 10.4053 177.764 10.4053 189.112V198.451C10.4053 209.8 19.6053 219 30.9542 219Z" fill="#7C1D22"/>
<path d="M233.876 207.888C253.17 207.888 268.811 201.382 268.811 193.357C268.811 185.331 253.17 178.825 233.876 178.825C214.582 178.825 198.941 185.331 198.941 193.357C198.941 201.382 214.582 207.888 233.876 207.888Z" fill="#5B141B"/>
<path d="M168.756 209.259C181.99 209.259 192.718 206.282 192.718 202.61C192.718 198.939 181.99 195.962 168.756 195.962C155.521 195.962 144.793 198.939 144.793 202.61C144.793 206.282 155.521 209.259 168.756 209.259Z" fill="#5B141B"/>
<path d="M88.0246 214.742C107.319 214.742 122.959 210.507 122.959 205.283C122.959 200.059 107.319 195.824 88.0246 195.824C68.7308 195.824 53.09 200.059 53.09 205.283C53.09 210.507 68.7308 214.742 88.0246 214.742Z" fill="#5B141B"/>
<path d="M68.4834 199.131C87.7773 199.131 103.418 193.926 103.418 187.504C103.418 181.083 87.7773 175.878 68.4834 175.878C49.1895 175.878 33.5487 181.083 33.5487 187.504C33.5487 193.926 49.1895 199.131 68.4834 199.131Z" fill="#5B141B"/>
<mask id="mask1_578_2914" style="mask-type:luminance" maskUnits="userSpaceOnUse" x="10" y="168" width="267" height="51">
<path d="M30.9542 219L256.34 219C267.689 219 276.889 209.8 276.889 198.451V189.112C276.889 177.764 267.689 168.563 256.34 168.563L30.9542 168.563C19.6053 168.563 10.4053 177.764 10.4053 189.112V198.451C10.4053 209.8 19.6053 219 30.9542 219Z" fill="white"/>
</mask>
<g mask="url(#mask1_578_2914)">
<path fill-rule="evenodd" clip-rule="evenodd" d="M47.2071 235.287L-8.46936 170.331L-1.28854 164.176L54.3879 229.132L47.2071 235.287Z" fill="#AA6A6D"/>
<path fill-rule="evenodd" clip-rule="evenodd" d="M90.1107 234.742L34.4342 169.785L41.615 163.63L97.2915 228.587L90.1107 234.742Z" fill="#AA6A6D"/>
<path fill-rule="evenodd" clip-rule="evenodd" d="M133.015 234.196L77.338 169.24L84.5188 163.085L140.196 228.041L133.015 234.196Z" fill="#AA6A6D"/>
<path fill-rule="evenodd" clip-rule="evenodd" d="M175.919 233.649L120.242 168.694L127.423 162.539L183.1 227.494L175.919 233.649Z" fill="#AA6A6D"/>
<path fill-rule="evenodd" clip-rule="evenodd" d="M218.823 233.103L163.146 168.147L170.326 161.992L226.004 226.948L218.823 233.103Z" fill="#AA6A6D"/>
<path fill-rule="evenodd" clip-rule="evenodd" d="M261.727 232.558L206.05 167.601L213.231 161.446L268.907 226.403L261.727 232.558Z" fill="#AA6A6D"/>
<path fill-rule="evenodd" clip-rule="evenodd" d="M304.63 232.012L248.954 167.056L256.135 160.901L311.811 225.857L304.63 232.012Z" fill="#AA6A6D"/>
</g>
<path d="M48.6165 64.9901H5.98065C4.89675 64.9901 4.01807 65.8687 4.01807 66.9526V71.7866C4.01807 72.8705 4.89675 73.7492 5.98065 73.7492H48.6165C49.7004 73.7492 50.5791 72.8705 50.5791 71.7866V66.9526C50.5791 65.8687 49.7004 64.9901 48.6165 64.9901Z" fill="#C68734"/>
<mask id="mask2_578_2914" style="mask-type:luminance" maskUnits="userSpaceOnUse" x="4" y="64" width="47" height="10">
<path d="M48.6165 64.9901H5.98065C4.89675 64.9901 4.01807 65.8687 4.01807 66.9526V71.7866C4.01807 72.8705 4.89675 73.7492 5.98065 73.7492H48.6165C49.7004 73.7492 50.5791 72.8705 50.5791 71.7866V66.9526C50.5791 65.8687 49.7004 64.9901 48.6165 64.9901Z" fill="white"/>
</mask>
<g mask="url(#mask2_578_2914)">
<path d="M5.63202 62.1473C5.63202 62.1473 3.94151 71.9821 6.09276 72.597C8.24401 73.2119 54.4976 72.9044 54.4976 72.9044L48.5046 78.7433L0.253052 79.9731L2.71175 62.7622L5.63202 62.1473Z" fill="#91642D"/>
</g>
<path d="M16.85 67.0647H6.70522C6.54227 67.0642 6.38613 66.9993 6.27092 66.8841C6.1557 66.7689 6.09078 66.6127 6.09033 66.4498C6.09078 66.2869 6.15573 66.1309 6.27097 66.0158C6.38621 65.9007 6.54235 65.836 6.70522 65.8358H16.85C17.0127 65.8362 17.1686 65.901 17.2837 66.0161C17.3987 66.1312 17.4636 66.2871 17.464 66.4498C17.4638 66.6127 17.399 66.7688 17.284 66.884C17.1689 66.9993 17.0128 67.0642 16.85 67.0647Z" fill="#A06825"/>
<path d="M44.817 67.0647H27.6062C27.5247 67.0645 27.4466 67.032 27.389 66.9744C27.3314 66.9168 27.2989 66.8387 27.2987 66.7572C27.2989 66.6758 27.3314 66.5977 27.389 66.5401C27.4466 66.4825 27.5247 66.45 27.6062 66.4498H44.817C44.8984 66.4502 44.9763 66.4828 45.0339 66.5403C45.0915 66.5979 45.124 66.6758 45.1244 66.7572C45.1242 66.8387 45.0918 66.9168 45.0341 66.9744C44.9765 67.032 44.8985 67.0645 44.817 67.0647Z" fill="#A06825"/>
<path d="M46.9674 70.599H36.8261C36.4865 70.599 36.2112 70.8741 36.2112 71.2135C36.2112 71.5528 36.4865 71.8279 36.8261 71.8279H46.9674C47.307 71.8279 47.5823 71.5528 47.5823 71.2135C47.5823 70.8741 47.307 70.599 46.9674 70.599Z" fill="#A06825"/>
<path d="M31.9087 69.6775H22.3814C22.2592 69.6771 22.1421 69.6283 22.0558 69.5418C21.9695 69.4553 21.9209 69.3381 21.9207 69.2159C21.9209 69.0938 21.9695 68.9767 22.0558 68.8904C22.1422 68.804 22.2593 68.7554 22.3814 68.7552H31.9087C32.0309 68.7554 32.1479 68.804 32.2343 68.8904C32.3206 68.9767 32.3692 69.0938 32.3695 69.2159C32.3692 69.3381 32.3207 69.4553 32.2343 69.5418C32.148 69.6283 32.0309 69.6771 31.9087 69.6775Z" fill="#A06825"/>
<path d="M18.5394 71.3672H11.3175C11.1139 71.3667 10.9188 71.2857 10.7748 71.1417C10.6308 70.9977 10.5498 70.8026 10.5493 70.599C10.5498 70.3954 10.6308 70.2003 10.7748 70.0563C10.9188 69.9123 11.1139 69.8313 11.3175 69.8308H18.5394C18.743 69.8313 18.9382 69.9123 19.0821 70.0563C19.2261 70.2003 19.3072 70.3954 19.3076 70.599C19.3072 70.8026 19.2261 70.9977 19.0821 71.1417C18.9382 71.2857 18.743 71.3667 18.5394 71.3672Z" fill="#A06825"/>
<path d="M17.8832 34.1035H13.5099C12.426 34.1035 11.5474 34.9822 11.5474 36.0661V63.0283C11.5474 64.1122 12.426 64.9909 13.5099 64.9909H17.8832C18.9671 64.9909 19.8458 64.1122 19.8458 63.0283V36.0661C19.8458 34.9822 18.9671 34.1035 17.8832 34.1035Z" fill="#F53B51"/>
<mask id="mask3_578_2914" style="mask-type:luminance" maskUnits="userSpaceOnUse" x="11" y="34" width="9" height="31">
<path d="M17.8832 34.1035H13.5099C12.426 34.1035 11.5474 34.9822 11.5474 36.0661V63.0283C11.5474 64.1122 12.426 64.9909 13.5099 64.9909H17.8832C18.9671 64.9909 19.8458 64.1122 19.8458 63.0283V36.0661C19.8458 34.9822 18.9671 34.1035 17.8832 34.1035Z" fill="white"/>
</mask>
<g mask="url(#mask3_578_2914)">
<path d="M12.8892 8.82506H4.52092C3.43702 8.82506 2.55835 9.70373 2.55835 10.7876V65.1021C2.55835 66.186 3.43702 67.0647 4.52092 67.0647H12.8892C13.9731 67.0647 14.8518 66.186 14.8518 65.1021V10.7876C14.8518 9.70373 13.9731 8.82506 12.8892 8.82506Z" fill="#7F2D3B"/>
</g>
<path d="M25.5348 42.7085H21.5321C20.6855 42.7085 19.9991 43.3949 19.9991 44.2415V63.3038C19.9991 64.1504 20.6855 64.8368 21.5321 64.8368H25.5348C26.3814 64.8368 27.0678 64.1504 27.0678 63.3038V44.2415C27.0678 43.3949 26.3814 42.7085 25.5348 42.7085Z" fill="#FDB856"/>
<mask id="mask4_578_2914" style="mask-type:luminance" maskUnits="userSpaceOnUse" x="19" y="42" width="9" height="23">
<path d="M25.5348 42.7085H21.5321C20.6855 42.7085 19.9991 43.3949 19.9991 44.2415V63.3038C19.9991 64.1504 20.6855 64.8368 21.5321 64.8368H25.5348C26.3814 64.8368 27.0678 64.1504 27.0678 63.3038V44.2415C27.0678 43.3949 26.3814 42.7085 25.5348 42.7085Z" fill="white"/>
</mask>
<g mask="url(#mask4_578_2914)">
<path d="M21.6476 36.4847H19.4264C18.3425 36.4847 17.4639 37.3634 17.4639 38.4473V67.7141C17.4639 68.798 18.3425 69.6766 19.4264 69.6766H21.6476C22.7315 69.6766 23.6102 68.798 23.6102 67.7141V38.4473C23.6102 37.3634 22.7315 36.4847 21.6476 36.4847Z" fill="#C4873D"/>
</g>
<path d="M33.7111 34.1035H29.3378C28.2539 34.1035 27.3752 34.9822 27.3752 36.0661V63.0283C27.3752 64.1122 28.2539 64.9909 29.3378 64.9909H33.7111C34.795 64.9909 35.6736 64.1122 35.6736 63.0283V36.0661C35.6736 34.9822 34.795 34.1035 33.7111 34.1035Z" fill="#4D9FA0"/>
<mask id="mask5_578_2914" style="mask-type:luminance" maskUnits="userSpaceOnUse" x="27" y="34" width="9" height="31">
<path d="M33.7111 34.1035H29.3378C28.2539 34.1035 27.3752 34.9822 27.3752 36.0661V63.0283C27.3752 64.1122 28.2539 64.9909 29.3378 64.9909H33.7111C34.795 64.9909 35.6736 64.1122 35.6736 63.0283V36.0661C35.6736 34.9822 34.795 34.1035 33.7111 34.1035Z" fill="white"/>
</mask>
<g mask="url(#mask5_578_2914)">
<path d="M34.2907 26.4966H34.2898C33.2292 26.4966 32.3694 27.3565 32.3694 28.4171V67.7562C32.3694 68.8168 33.2292 69.6767 34.2898 69.6767H34.2907C35.3513 69.6767 36.2111 68.8168 36.2111 67.7562V28.4171C36.2111 27.3565 35.3513 26.4966 34.2907 26.4966Z" fill="#216868"/>
</g>
<path d="M41.3625 42.7085H37.3599C36.5132 42.7085 35.8269 43.3949 35.8269 44.2415V63.3038C35.8269 64.1504 36.5132 64.8368 37.3599 64.8368H41.3625C42.2092 64.8368 42.8955 64.1504 42.8955 63.3038V44.2415C42.8955 43.3949 42.2092 42.7085 41.3625 42.7085Z" fill="#FFD1AC"/>
<mask id="mask6_578_2914" style="mask-type:luminance" maskUnits="userSpaceOnUse" x="35" y="42" width="8" height="23">
<path d="M41.3625 42.7085H37.3599C36.5132 42.7085 35.8269 43.3949 35.8269 44.2415V63.3038C35.8269 64.1504 36.5132 64.8368 37.3599 64.8368H41.3625C42.2092 64.8368 42.8955 64.1504 42.8955 63.3038V44.2415C42.8955 43.3949 42.2092 42.7085 41.3625 42.7085Z" fill="white"/>
</mask>
<g mask="url(#mask6_578_2914)">
<path d="M43.1616 35.8706H41.247C40.1631 35.8706 39.2844 36.7493 39.2844 37.8332V67.8682C39.2844 68.9521 40.1631 69.8308 41.247 69.8308H43.1616C44.2455 69.8308 45.1241 68.9521 45.1241 67.8682V37.8332C45.1241 36.7493 44.2455 35.8706 43.1616 35.8706Z" fill="#D19C78"/>
</g>
<path d="M230.957 160.011C230.957 160.011 212.466 149.145 219.693 140.916C226.919 132.686 211.151 131.082 215.187 117.818C219.223 104.554 225.042 131.539 227.859 128.108C226.076 121.019 227.296 115.187 230.957 120.333C234.617 125.479 230.957 137.028 230.957 137.028C230.957 137.028 233.303 128.223 236.4 133.254C239.498 138.285 232.273 148.805 235.462 154.179C237.147 147.778 241 146.747 239.78 152.579C238.56 158.411 238.559 165.615 238.559 165.615L230.957 160.011Z" fill="#386E94"/>
<mask id="mask7_578_2914" style="mask-type:luminance" maskUnits="userSpaceOnUse" x="214" y="114" width="27" height="52">
<path d="M230.957 160.011C230.957 160.011 212.466 149.145 219.693 140.916C226.919 132.686 211.151 131.082 215.187 117.818C219.223 104.554 225.042 131.539 227.859 128.108C226.076 121.019 227.296 115.187 230.957 120.333C234.617 125.479 230.957 137.028 230.957 137.028C230.957 137.028 233.303 128.223 236.4 133.254C239.498 138.285 232.273 148.805 235.462 154.179C237.147 147.778 241 146.747 239.78 152.579C238.56 158.411 238.559 165.615 238.559 165.615L230.957 160.011Z" fill="white"/>
</mask>
<g mask="url(#mask7_578_2914)">
<path d="M217.504 111.328C217.504 111.328 216.906 124.476 222.683 130.652C228.46 136.828 222.883 143.202 225.073 147.983C227.264 152.764 241.21 169.304 241.21 169.304L226.27 168.108L207.344 148.987L211.724 135.839L207.344 116.719L217.504 111.328Z" fill="#4D9FA0"/>
</g>
<path d="M251.588 155.979C251.588 155.979 281.237 133.236 266.977 120.551C252.717 107.866 279.641 101.721 269.824 79.6505C260.007 57.5803 255.72 105.484 250.114 100.156C251.681 87.521 248.323 77.6946 243.094 87.3744C237.865 97.0542 246.67 116.239 246.67 116.239C246.67 116.239 240.728 101.518 236.45 110.88C232.171 120.242 246.918 136.884 242.55 146.859C238.259 136.149 231.385 135.193 234.742 145.015C238.1 154.837 239.642 167.292 239.642 167.292L251.588 155.979Z" fill="#4D9FA0"/>
<mask id="mask8_578_2914" style="mask-type:luminance" maskUnits="userSpaceOnUse" x="233" y="73" width="40" height="95">
<path d="M251.588 155.979C251.588 155.979 281.237 133.236 266.977 120.551C252.717 107.866 279.641 101.721 269.824 79.6505C260.007 57.5803 255.72 105.484 250.114 100.156C251.681 87.521 248.323 77.6946 243.094 87.3744C237.865 97.0542 246.67 116.239 246.67 116.239C246.67 116.239 240.728 101.518 236.45 110.88C232.171 120.242 246.918 136.884 242.55 146.859C238.259 136.149 231.385 135.193 234.742 145.015C238.1 154.837 239.642 167.292 239.642 167.292L251.588 155.979Z" fill="white"/>
</mask>
<g mask="url(#mask8_578_2914)">
<path d="M268.9 72.88C268.9 72.88 275.275 85.2316 264.319 86.2272C252.382 87.3129 254.756 103.958 249.776 103.559C244.797 103.161 253.362 85.63 247.586 81.2475C241.811 76.8649 255.356 79.4542 255.356 79.4542L252.965 91.2078L257.544 74.8721L258.74 69.4906L268.9 72.88Z" fill="#386E94"/>
<path d="M246.19 82.6414C246.19 82.6414 241.409 85.0319 243.799 101.368C246.19 117.703 248.179 119.496 248.179 119.496C248.179 119.496 241.805 106.547 236.426 107.145C231.047 107.743 235.23 84.2343 235.23 84.2343L246.19 82.6414Z" fill="#386E94"/>
<path d="M266.709 106.149C266.709 106.149 254.557 113.121 262.924 125.871C268.652 134.597 249.178 152.764 242.804 161.929C236.396 171.138 241.01 174.081 241.01 174.081L266.311 158.143L283.642 124.078L266.709 106.149Z" fill="#386E94"/>
<path d="M235.831 117.066C235.831 117.066 250.175 144.995 244.001 148.78C237.828 152.566 239.621 136.031 233.842 135.831C228.062 135.632 238.424 132.644 238.424 132.644L235.831 117.066Z" fill="#386E94"/>
</g>
<path d="M258.641 169.399L254.657 196.292H221.189L218.201 169.399H258.641Z" fill="#C48437"/>
<mask id="mask9_578_2914" style="mask-type:luminance" maskUnits="userSpaceOnUse" x="218" y="169" width="41" height="28">
<path d="M258.641 169.399L254.657 196.292H221.189L218.201 169.399H258.641Z" fill="white"/>
</mask>
<g mask="url(#mask9_578_2914)">
<path d="M248.979 165.713C248.979 165.713 258.74 188.822 232.245 191.412C205.75 194.002 221.089 198.583 221.089 198.583H255.752L266.311 178.264L262.924 165.713H248.979Z" fill="#9B652A"/>
</g>
<path d="M216.361 174.18H260.48C261.884 174.18 263.023 173.041 263.023 171.636V162.779C263.023 161.374 261.884 160.235 260.48 160.235H216.361C214.956 160.235 213.817 161.374 213.817 162.779V171.636C213.817 173.041 214.956 174.18 216.361 174.18Z" fill="#8E571B"/>
<mask id="mask10_578_2914" style="mask-type:luminance" maskUnits="userSpaceOnUse" x="213" y="160" width="51" height="15">
<path d="M216.361 174.18H260.48C261.884 174.18 263.023 173.041 263.023 171.636V162.778C263.023 161.374 261.884 160.235 260.48 160.235H216.361C214.956 160.235 213.817 161.374 213.817 162.778V171.636C213.817 173.041 214.956 174.18 216.361 174.18Z" fill="white"/>
</mask>
<g mask="url(#mask10_578_2914)">
<path d="M260.932 156.948C260.932 156.948 262.725 170.495 259.736 172.088C256.748 173.682 209.137 172.487 209.137 172.487L216.706 178.662L265.714 179.658L273.085 157.147L260.932 156.948Z" fill="#513214"/>
</g>
<path d="M46.1285 111.778H43.1299C42.5712 111.778 42.1183 112.231 42.1183 112.789V124.336C42.1183 124.894 42.5712 125.347 43.1299 125.347H46.1285C46.6872 125.347 47.1401 124.894 47.1401 124.336V112.789C47.1401 112.231 46.6872 111.778 46.1285 111.778Z" fill="#FDB856"/>
<mask id="mask11_578_2914" style="mask-type:luminance" maskUnits="userSpaceOnUse" x="42" y="111" width="6" height="15">
<path d="M46.1285 111.778H43.1299C42.5712 111.778 42.1183 112.231 42.1183 112.789V124.336C42.1183 124.894 42.5712 125.347 43.1299 125.347H46.1285C46.6872 125.347 47.1401 124.894 47.1401 124.336V112.789C47.1401 112.231 46.6872 111.778 46.1285 111.778Z" fill="white"/>
</mask>
<g mask="url(#mask11_578_2914)">
<path d="M43.3883 107.961H41.6127C40.8973 107.961 40.3173 108.541 40.3173 109.257V127.02C40.3173 127.736 40.8973 128.316 41.6127 128.316H43.3883C44.1038 128.316 44.6838 127.736 44.6838 127.02V109.257C44.6838 108.541 44.1038 107.961 43.3883 107.961Z" fill="#C4873D"/>
</g>
<path d="M51.9588 106.501H48.6545C47.939 106.501 47.359 107.081 47.359 107.796V124.146C47.359 124.862 47.939 125.442 48.6545 125.442H51.9588C52.6743 125.442 53.2543 124.862 53.2543 124.146V107.796C53.2543 107.081 52.6743 106.501 51.9588 106.501Z" fill="#4D9FA0"/>
<mask id="mask12_578_2914" style="mask-type:luminance" maskUnits="userSpaceOnUse" x="47" y="106" width="7" height="20">
<path d="M51.9588 106.501H48.6545C47.939 106.501 47.359 107.081 47.359 107.796V124.146C47.359 124.862 47.939 125.442 48.6545 125.442H51.9588C52.6743 125.442 53.2543 124.862 53.2543 124.146V107.796C53.2543 107.081 52.6743 106.501 51.9588 106.501Z" fill="white"/>
</mask>
<g mask="url(#mask12_578_2914)">
<path d="M52.3406 101.836H52.2025C51.487 101.836 50.907 102.416 50.907 103.131V127.02C50.907 127.736 51.487 128.316 52.2025 128.316H52.3406C53.0561 128.316 53.6361 127.736 53.6361 127.02V103.131C53.6361 102.416 53.0561 101.836 52.3406 101.836Z" fill="#216868"/>
</g>
<path d="M57.3731 111.778H54.3745C53.8158 111.778 53.3629 112.231 53.3629 112.789V124.336C53.3629 124.894 53.8158 125.347 54.3745 125.347H57.3731C57.9318 125.347 58.3847 124.894 58.3847 124.336V112.789C58.3847 112.231 57.9318 111.778 57.3731 111.778Z" fill="#FFD1AC"/>
<mask id="mask13_578_2914" style="mask-type:luminance" maskUnits="userSpaceOnUse" x="53" y="111" width="6" height="15">
<path d="M57.3731 111.778H54.3745C53.8158 111.778 53.3629 112.231 53.3629 112.789V124.336C53.3629 124.894 53.8158 125.347 54.3745 125.347H57.3731C57.9318 125.347 58.3847 124.894 58.3847 124.336V112.789C58.3847 112.231 57.9318 111.778 57.3731 111.778Z" fill="white"/>
</mask>
<g mask="url(#mask13_578_2914)">
<path d="M58.6717 107.584H57.1143C56.3988 107.584 55.8188 108.164 55.8188 108.879V127.114C55.8188 127.83 56.3988 128.41 57.1143 128.41H58.6717C59.3872 128.41 59.9672 127.83 59.9672 127.114V108.879C59.9672 108.164 59.3872 107.584 58.6717 107.584Z" fill="#D19C78"/>
</g>
<path d="M166.527 140.531H165.244C164.189 140.531 163.334 141.386 163.334 142.441V206.064C163.334 207.119 164.189 207.974 165.244 207.974H166.527C167.582 207.974 168.437 207.119 168.437 206.064V142.441C168.437 141.386 167.582 140.531 166.527 140.531Z" fill="#EA903F"/>
<path d="M165.268 179.969H165.267C164.925 179.969 164.648 180.246 164.648 180.587V200.481C164.648 200.822 164.925 201.099 165.267 201.099H165.268C165.609 201.099 165.886 200.822 165.886 200.481V180.587C165.886 180.246 165.609 179.969 165.268 179.969Z" fill="#BC7235"/>
<path d="M166.814 171.894C166.814 171.638 166.606 171.43 166.35 171.43C166.094 171.43 165.886 171.638 165.886 171.894V177.189C165.886 177.445 166.094 177.653 166.35 177.653C166.606 177.653 166.814 177.445 166.814 177.189V171.894Z" fill="#BC7235"/>
<path d="M165.267 151.477C165.267 151.307 165.128 151.168 164.958 151.168C164.787 151.168 164.648 151.307 164.648 151.477V158.964C164.648 159.134 164.787 159.273 164.958 159.273C165.128 159.273 165.267 159.134 165.267 158.964V151.477Z" fill="#BC7235"/>
<path d="M166.582 145.524H166.581C166.453 145.524 166.349 145.628 166.349 145.756V152.24C166.349 152.368 166.453 152.471 166.581 152.471H166.582C166.71 152.471 166.813 152.368 166.813 152.24V145.756C166.813 145.628 166.71 145.524 166.582 145.524Z" fill="#BC7235"/>
<path d="M59.2718 140.458H57.989C56.9339 140.458 56.0786 141.314 56.0786 142.369V205.991C56.0786 207.046 56.9339 207.902 57.989 207.902H59.2718C60.3268 207.902 61.1821 207.046 61.1821 205.991V142.369C61.1821 141.314 60.3268 140.458 59.2718 140.458Z" fill="#EA903F"/>
<path d="M157.402 134.597H156.119C155.064 134.597 154.209 135.452 154.209 136.507V200.13C154.209 201.185 155.064 202.04 156.119 202.04H157.402C158.457 202.04 159.313 201.185 159.313 200.13V136.507C159.313 135.452 158.457 134.597 157.402 134.597Z" fill="#875129"/>
<path d="M69.0921 134.452H67.8093C66.7542 134.452 65.8989 135.307 65.8989 136.362V199.985C65.8989 201.04 66.7542 201.895 67.8093 201.895H69.0921C70.1472 201.895 71.0025 201.04 71.0025 199.985V136.362C71.0025 135.307 70.1472 134.452 69.0921 134.452Z" fill="#875129"/>
<path d="M194.52 125.479H34.0943C33.0393 125.479 32.184 126.334 32.184 127.389V136.015C32.184 137.07 33.0393 137.925 34.0943 137.925H194.52C195.575 137.925 196.43 137.07 196.43 136.015V127.389C196.43 126.334 195.575 125.479 194.52 125.479Z" fill="#EA903F"/>
<path d="M180.758 137.925H44.7622C44.136 137.925 43.6284 138.433 43.6284 139.059V142.002C43.6284 142.628 44.136 143.136 44.7622 143.136H180.758C181.385 143.136 181.892 142.628 181.892 142.002V139.059C181.892 138.433 181.385 137.925 180.758 137.925Z" fill="#A36231"/>
<path d="M49.9516 127.578H37.7693C37.2897 127.578 36.9009 127.967 36.9009 128.446C36.9009 128.926 37.2897 129.315 37.7693 129.315H49.9516C50.4312 129.315 50.82 128.926 50.82 128.446C50.82 127.967 50.4312 127.578 49.9516 127.578Z" fill="#BC7235"/>
<path d="M104.411 129.315H69.6095C68.9698 129.315 68.4513 129.833 68.4513 130.472C68.4513 131.112 68.9698 131.63 69.6095 131.63H104.411C105.051 131.63 105.569 131.112 105.569 130.472C105.569 129.833 105.051 129.315 104.411 129.315Z" fill="#BC7235"/>
<path d="M64.4477 131.63H54.6693C53.9101 131.63 53.2947 132.245 53.2947 133.005V133.006C53.2947 133.765 53.9101 134.38 54.6693 134.38H64.4477C65.2069 134.38 65.8223 133.765 65.8223 133.006V133.005C65.8223 132.245 65.2069 131.63 64.4477 131.63Z" fill="#BC7235"/>
<path d="M184.194 127.578H134.585C134.105 127.578 133.716 127.967 133.716 128.446C133.716 128.926 134.105 129.315 134.585 129.315H184.194C184.674 129.315 185.063 128.926 185.063 128.446C185.063 127.967 184.674 127.578 184.194 127.578Z" fill="#BC7235"/>
<path d="M136.468 131.63H118.902C118.542 131.63 118.251 131.922 118.251 132.281C118.251 132.641 118.542 132.932 118.902 132.932H136.468C136.828 132.932 137.119 132.641 137.119 132.281C137.119 131.922 136.828 131.63 136.468 131.63Z" fill="#BC7235"/>
<path d="M187.506 131.63H176.28C175.921 131.63 175.629 131.922 175.629 132.281C175.629 132.641 175.921 132.932 176.28 132.932H187.506C187.865 132.932 188.157 132.641 188.157 132.281C188.157 131.922 187.865 131.63 187.506 131.63Z" fill="#BC7235"/>
<path d="M59.4813 148.882C59.4813 148.626 59.2735 148.418 59.0172 148.418C58.7609 148.418 58.5531 148.626 58.5531 148.882V156.637C58.5531 156.894 58.7609 157.101 59.0172 157.101C59.2735 157.101 59.4813 156.894 59.4813 156.637V148.882Z" fill="#BC7235"/>
<path d="M59.4813 169.723C59.4813 169.467 59.2735 169.259 59.0172 169.259C58.7609 169.259 58.5531 169.467 58.5531 169.723V186.741C58.5531 186.998 58.7609 187.205 59.0172 187.205C59.2735 187.205 59.4813 186.998 59.4813 186.741V169.723Z" fill="#BC7235"/>
<path d="M57.9341 192.658C57.9341 192.444 57.761 192.271 57.5475 192.271C57.334 192.271 57.1609 192.444 57.1609 192.658V199.844C57.1609 200.058 57.334 200.231 57.5475 200.231C57.761 200.231 57.9341 200.058 57.9341 199.844V192.658Z" fill="#BC7235"/>
<path d="M57.9341 158.646C57.9341 158.433 57.761 158.26 57.5475 158.26C57.334 158.26 57.1609 158.433 57.1609 158.646V162.215C57.1609 162.429 57.334 162.602 57.5475 162.602C57.761 162.602 57.9341 162.429 57.9341 162.215V158.646Z" fill="#BC7235"/>
<path d="M73.8403 106.961L158.96 106.961C159.567 106.961 160.059 106.469 160.059 105.862V42.6411C160.059 42.034 159.567 41.5419 158.96 41.5419L73.8403 41.5419C73.2332 41.5419 72.7411 42.034 72.7411 42.6411L72.7411 105.862C72.7411 106.469 73.2332 106.961 73.8403 106.961Z" fill="#8C5D3C"/>
<path d="M114.677 117.412H116.484C117.078 117.412 117.559 116.93 117.559 116.336V95.8354C117.559 95.2413 117.078 94.7597 116.484 94.7597H114.677C114.083 94.7597 113.601 95.2413 113.601 95.8354V116.336C113.601 116.93 114.083 117.412 114.677 117.412Z" fill="#8C5D3C"/>
<path d="M75.6403 124.991L155.52 124.991C156.088 124.991 156.548 124.531 156.548 123.963V117.093C156.548 116.525 156.088 116.065 155.52 116.065L75.6403 116.065C75.0728 116.065 74.6127 116.525 74.6127 117.093V123.963C74.6127 124.531 75.0728 124.991 75.6403 124.991Z" fill="#C99C6B"/>
<mask id="mask14_578_2914" style="mask-type:luminance" maskUnits="userSpaceOnUse" x="74" y="116" width="83" height="9">
<path d="M75.6403 124.991L155.52 124.991C156.088 124.991 156.548 124.531 156.548 123.963V117.093C156.548 116.525 156.088 116.065 155.52 116.065L75.6403 116.065C75.0728 116.065 74.6127 116.525 74.6127 117.093V123.963C74.6127 124.531 75.0728 124.991 75.6403 124.991Z" fill="white"/>
</mask>
<g mask="url(#mask14_578_2914)">
<path d="M161.499 121.377C161.499 121.377 83.4368 121.157 78.2044 121.265C72.6031 121.383 78.1589 111.261 78.1589 111.261L68.7672 116.1V134.676L107.513 142.425L168.309 136.465L161.499 121.377Z" fill="#8C5D3C"/>
</g>
<path d="M76.2525 104.824L159.995 104.824C160.589 104.824 161.07 104.343 161.07 103.749V42.2377C161.07 41.6436 160.589 41.162 159.995 41.162L76.2525 41.162C75.6585 41.162 75.1769 41.6436 75.1769 42.2377L75.1769 103.749C75.1769 104.343 75.6585 104.824 76.2525 104.824Z" fill="#C99C6B"/>
<path d="M81.8303 100.367L154.086 100.367C154.689 100.367 155.178 99.8779 155.178 99.2745V48.2391C155.178 47.6358 154.689 47.1467 154.086 47.1467L81.8303 47.1467C81.2269 47.1467 80.7378 47.6358 80.7378 48.2391V99.2745C80.7378 99.8779 81.2269 100.367 81.8303 100.367Z" fill="#F4E1C9"/>
<path d="M118.811 96.2826C118.614 96.2822 118.424 96.2036 118.285 96.0641C118.145 95.9246 118.066 95.7354 118.066 95.538V91.4646C118.066 91.2672 118.145 91.0781 118.285 90.9386C118.424 90.799 118.614 90.7205 118.811 90.72C119.008 90.7207 119.197 90.7994 119.337 90.9389C119.476 91.0783 119.555 91.2674 119.556 91.4646V95.538C119.555 95.7353 119.476 95.9243 119.337 96.0638C119.197 96.2033 119.008 96.282 118.811 96.2826Z" fill="#BA2A31"/>
<path d="M121.596 96.2826C121.398 96.2819 121.209 96.2033 121.07 96.0638C120.93 95.9243 120.852 95.7353 120.851 95.538V91.4646C120.851 91.2668 120.929 91.0769 121.069 90.9367C121.208 90.7964 121.398 90.7173 121.596 90.7166C121.793 90.7171 121.982 90.7956 122.122 90.9352C122.262 91.0747 122.34 91.2638 122.341 91.4612V95.5346C122.341 95.7326 122.263 95.9226 122.123 96.0629C121.983 96.2031 121.794 96.2822 121.596 96.2826Z" fill="#BA2A31"/>
<path d="M116.675 91.5143V95.4884L113.199 93.5014L116.675 91.5143Z" fill="#BA2A31"/>
<path d="M123.729 91.5143V95.4884L127.205 93.5014L123.729 91.5143Z" fill="#BA2A31"/>
<path d="M140.029 90.72H134.917C134.216 90.72 133.648 91.288 133.648 91.9885V94.2198C133.648 94.9204 134.216 95.4883 134.917 95.4883H140.029C140.729 95.4883 141.297 94.9204 141.297 94.2198V91.9885C141.297 91.288 140.729 90.72 140.029 90.72Z" fill="#BA2A31"/>
<path d="M146.653 90.72H143.888C143.335 90.72 142.887 91.1684 142.887 91.7215V94.4868C142.887 95.0399 143.335 95.4883 143.888 95.4883H146.653C147.207 95.4883 147.655 95.0399 147.655 94.4868V91.7215C147.655 91.1684 147.207 90.72 146.653 90.72Z" fill="#BA2A31"/>
<path d="M98.4685 91.1597H93.3565C92.6559 91.1597 92.088 91.7276 92.088 92.4282V94.6595C92.088 95.3601 92.6559 95.928 93.3565 95.928H98.4685C99.1691 95.928 99.737 95.3601 99.737 94.6595V92.4282C99.737 91.7276 99.1691 91.1597 98.4685 91.1597Z" fill="#BA2A31"/>
<path d="M105.093 91.1597H102.328C101.775 91.1597 101.326 91.6081 101.326 92.1612V94.9265C101.326 95.4796 101.775 95.928 102.328 95.928H105.093C105.646 95.928 106.095 95.4796 106.095 94.9265V92.1612C106.095 91.6081 105.646 91.1597 105.093 91.1597Z" fill="#BA2A31"/>
<path d="M152.324 88.6336H88.2514C88.1461 88.6334 88.0451 88.5914 87.9706 88.5169C87.8961 88.4424 87.8541 88.3414 87.8539 88.2361C87.8543 88.1308 87.8964 88.03 87.9709 87.9557C88.0454 87.8814 88.1462 87.8395 88.2514 87.8393H152.324C152.429 87.8395 152.53 87.8814 152.605 87.9557C152.679 88.03 152.721 88.1308 152.722 88.2361C152.721 88.3414 152.679 88.4424 152.605 88.5169C152.53 88.5914 152.429 88.6334 152.324 88.6336Z" fill="#BA2A31"/>
<path d="M92.1731 57.0446L99.0396 63.0073H113.314L104.731 57.0446H92.1731Z" fill="#F53B51"/>
<path d="M98.407 76.8304L99.0396 63.0073H113.314V76.5592L98.407 76.8304Z" fill="#F53B51"/>
<path d="M92.1731 70.9578L98.407 76.8304L99.0396 63.0073L92.1731 57.0446V70.9578Z" fill="#F53B51"/>
<path d="M138.521 70.9578L129.577 51.5334L120.362 70.9578" fill="#4D9FA0"/>
<path d="M129.532 74.9327C134.547 74.9327 138.612 73.2541 138.612 71.1835C138.612 69.113 134.547 67.4344 129.532 67.4344C124.517 67.4344 120.452 69.113 120.452 71.1835C120.452 73.2541 124.517 74.9327 129.532 74.9327Z" fill="#4D9FA0"/>
<path d="M133.121 79.3598H125.491C124.853 79.3598 124.337 79.8765 124.337 80.5138V81.458C124.337 82.0953 124.853 82.612 125.491 82.612H133.121C133.758 82.612 134.275 82.0953 134.275 81.458V80.5138C134.275 79.8765 133.758 79.3598 133.121 79.3598Z" fill="#97B545"/>
<path d="M121.737 53.159H114.107C113.469 53.159 112.953 53.6757 112.953 54.313V55.2572C112.953 55.8945 113.469 56.4112 114.107 56.4112H121.737C122.374 56.4112 122.891 55.8945 122.891 55.2572V54.313C122.891 53.6757 122.374 53.159 121.737 53.159Z" fill="#EA903F"/>
<path d="M144.324 77.7342H136.694C136.057 77.7342 135.54 78.2508 135.54 78.8881V79.8324C135.54 80.4697 136.057 80.9863 136.694 80.9863H144.324C144.962 80.9863 145.478 80.4697 145.478 79.8324V78.8881C145.478 78.2508 144.962 77.7342 144.324 77.7342Z" fill="#4D9FA0"/>
<path d="M144.8 82.9742H136.217C136.039 82.9726 135.868 82.9012 135.742 82.7751C135.616 82.6491 135.545 82.4786 135.543 82.3003C135.545 82.1221 135.616 81.9516 135.742 81.8256C135.868 81.6995 136.039 81.628 136.217 81.6265H144.8C144.979 81.6269 145.151 81.6979 145.278 81.8241C145.405 81.9503 145.477 82.1214 145.478 82.3003C145.477 82.4793 145.405 82.6504 145.278 82.7766C145.151 82.9028 144.979 82.9737 144.8 82.9742Z" fill="#FDB856"/>
<path d="M146.246 57.6772H137.663C137.485 57.6756 137.314 57.6041 137.188 57.4781C137.062 57.3521 136.991 57.1816 136.989 57.0033C136.991 56.8251 137.062 56.6546 137.188 56.5285C137.314 56.4025 137.485 56.331 137.663 56.3295H146.246C146.424 56.331 146.595 56.4025 146.721 56.5285C146.847 56.6546 146.918 56.8251 146.92 57.0033C146.918 57.1816 146.847 57.3521 146.721 57.4781C146.595 57.6041 146.424 57.6756 146.246 57.6772Z" fill="#D19C78"/>
<path d="M110.108 80.3537H101.524C101.15 80.3537 100.846 80.6569 100.846 81.0309V81.0318C100.846 81.4058 101.15 81.709 101.524 81.709H110.108C110.482 81.709 110.785 81.4058 110.785 81.0318V81.0309C110.785 80.6569 110.482 80.3537 110.108 80.3537Z" fill="#EA903F"/>
<path fill-rule="evenodd" clip-rule="evenodd" d="M90.1648 56.2258H104.844L115.47 63.6071H98.665L90.1648 56.2258ZM93.9622 57.6444L99.195 62.1885H110.941L104.4 57.6444H93.9622Z" fill="#593515"/>
<path fill-rule="evenodd" clip-rule="evenodd" d="M98.2524 62.1885H113.915V77.147L97.5543 77.4447L98.2524 62.1885ZM99.6077 63.6071L99.0406 75.9988L112.496 75.754V63.6071H99.6077Z" fill="#593515"/>
<path fill-rule="evenodd" clip-rule="evenodd" d="M91.3542 55.3797L99.6543 62.5873L98.9355 78.2972L91.3542 71.1554V55.3797ZM92.7729 58.4905V70.5429L97.6595 75.1462L98.2058 63.2083L92.7729 58.4905Z" fill="#593515"/>
<path fill-rule="evenodd" clip-rule="evenodd" d="M129.478 49.7488L139.057 70.5525L137.768 71.1458L129.458 53.099L120.893 71.1532L119.611 70.5451L129.478 49.7488Z" fill="#593515"/>
<path fill-rule="evenodd" clip-rule="evenodd" d="M121.552 70.1231C121.18 70.4854 121.052 70.8067 121.052 71.0749C121.052 71.3431 121.18 71.6644 121.552 72.0266C121.925 72.3911 122.502 72.7521 123.273 73.0703C124.811 73.7053 126.985 74.1147 129.423 74.1147C131.86 74.1147 134.034 73.7053 135.572 73.0703C136.343 72.7521 136.92 72.3911 137.294 72.0266C137.665 71.6644 137.793 71.3431 137.793 71.0749C137.793 70.8067 137.665 70.4854 137.294 70.1231C136.92 69.7586 136.343 69.3977 135.572 69.0795C134.034 68.4444 131.86 68.0351 129.423 68.0351C126.985 68.0351 124.811 68.4444 123.273 69.0795C122.502 69.3977 121.925 69.7586 121.552 70.1231ZM122.731 67.7682C124.48 67.0464 126.846 66.6165 129.423 66.6165C131.999 66.6165 134.366 67.0464 136.114 67.7682C136.986 68.1285 137.739 68.5754 138.285 69.108C138.832 69.6428 139.212 70.3078 139.212 71.0749C139.212 71.842 138.832 72.507 138.285 73.0418C137.739 73.5744 136.986 74.0213 136.114 74.3815C134.366 75.1034 131.999 75.5333 129.423 75.5333C126.846 75.5333 124.48 75.1034 122.731 74.3815C121.859 74.0213 121.106 73.5744 120.561 73.0418C120.013 72.507 119.633 71.842 119.633 71.0749C119.633 70.3078 120.013 69.6428 120.561 69.108C121.106 68.5754 121.859 68.1285 122.731 67.7682Z" fill="#593515"/>
<path fill-rule="evenodd" clip-rule="evenodd" d="M125.382 79.9605C125.136 79.9605 124.937 80.1596 124.937 80.4051V81.3494C124.937 81.5949 125.136 81.794 125.382 81.794H133.012C133.258 81.794 133.457 81.5949 133.457 81.3494V80.4051C133.457 80.1596 133.258 79.9605 133.012 79.9605H125.382ZM123.519 80.4051C123.519 79.3761 124.353 78.5418 125.382 78.5418H133.012C134.041 78.5418 134.876 79.3761 134.876 80.4051V81.3494C134.876 82.3784 134.041 83.2126 133.012 83.2126H125.382C124.353 83.2126 123.519 82.3784 123.519 81.3494V80.4051Z" fill="#593515"/>
<path fill-rule="evenodd" clip-rule="evenodd" d="M113.998 53.7597C113.752 53.7597 113.553 53.9588 113.553 54.2043V55.1486C113.553 55.3941 113.752 55.5932 113.998 55.5932H121.629C121.874 55.5932 122.073 55.3941 122.073 55.1486V54.2043C122.073 53.9588 121.874 53.7597 121.629 53.7597H113.998ZM112.135 54.2043C112.135 53.1753 112.969 52.341 113.998 52.341H121.629C122.658 52.341 123.492 53.1753 123.492 54.2043V55.1486C123.492 56.1776 122.658 57.0118 121.629 57.0118H113.998C112.969 57.0118 112.135 56.1776 112.135 55.1486V54.2043Z" fill="#593515"/>
<path fill-rule="evenodd" clip-rule="evenodd" d="M136.585 78.334C136.339 78.334 136.14 78.533 136.14 78.7786V79.7228C136.14 79.9684 136.339 80.1675 136.585 80.1675H144.215C144.461 80.1675 144.66 79.9684 144.66 79.7228V78.7786C144.66 78.533 144.461 78.334 144.215 78.334H136.585ZM134.721 78.7786C134.721 77.7496 135.556 76.9153 136.585 76.9153H144.215C145.244 76.9153 146.078 77.7496 146.078 78.7786V79.7228C146.078 80.7519 145.244 81.5861 144.215 81.5861H136.585C135.556 81.5861 134.721 80.7519 134.721 79.7228V78.7786Z" fill="#593515"/>
<path fill-rule="evenodd" clip-rule="evenodd" d="M136.109 80.8077H144.697C145.061 80.8108 145.41 80.9569 145.667 81.2145C145.925 81.4721 146.071 81.8205 146.074 82.1847L146.074 82.1908L146.074 82.197C146.071 82.5612 145.925 82.9096 145.667 83.1672C145.41 83.4248 145.061 83.5708 144.697 83.574L144.691 83.574L136.107 83.574C135.741 83.5731 135.391 83.428 135.131 83.1702C134.872 82.9124 134.725 82.5627 134.721 82.197L134.721 82.1908L134.721 82.1847C134.725 81.819 134.872 81.4693 135.131 81.2115C135.391 80.9536 135.741 80.8086 136.107 80.8077L136.109 80.8077Z" fill="#593515"/>
<path fill-rule="evenodd" clip-rule="evenodd" d="M137.554 55.5064H146.143C146.508 55.5096 146.856 55.6557 147.114 55.9133C147.371 56.1708 147.517 56.5192 147.52 56.8835L147.52 56.8874L147.52 56.8913C147.52 57.2571 147.374 57.6077 147.117 57.8671C146.859 58.1265 146.509 58.2738 146.143 58.277L146.137 58.277L137.552 58.277C137.185 58.2761 136.833 58.1298 136.574 57.8701C136.314 57.6105 136.168 57.2586 136.167 56.8914L136.167 56.8874L136.167 56.8835C136.17 56.5177 136.317 56.168 136.577 55.9102C136.836 55.6524 137.187 55.5073 137.552 55.5064L137.554 55.5064Z" fill="#593515"/>
<path fill-rule="evenodd" clip-rule="evenodd" d="M101.415 79.5434H110.004C110.368 79.5465 110.717 79.6926 110.974 79.9502C111.232 80.2077 111.378 80.5562 111.381 80.9204L111.381 80.9265L111.381 80.9327C111.378 81.2969 111.232 81.6453 110.974 81.9029C110.717 82.1604 110.368 82.3065 110.004 82.3097L109.998 82.3097L101.413 82.3097C101.047 82.3088 100.697 82.1637 100.437 81.9059C100.178 81.6481 100.031 81.2984 100.027 80.9327L100.027 80.9265L100.027 80.9204C100.031 80.5547 100.178 80.205 100.437 79.9472C100.697 79.6893 101.047 79.5443 101.413 79.5434L101.415 79.5434Z" fill="#593515"/>
<path d="M137.465 158.302H80.5053C77.9653 158.302 75.9062 160.361 75.9062 162.901V192.24C75.9062 194.78 77.9653 196.839 80.5053 196.839H137.465C140.005 196.839 142.064 194.78 142.064 192.24V162.901C142.064 160.361 140.005 158.302 137.465 158.302Z" fill="#2E7575"/>
<mask id="mask15_578_2914" style="mask-type:luminance" maskUnits="userSpaceOnUse" x="75" y="158" width="68" height="39">
<path d="M137.465 158.302H80.5053C77.9653 158.302 75.9062 160.361 75.9062 162.901V192.24C75.9062 194.78 77.9653 196.839 80.5053 196.839H137.465C140.005 196.839 142.064 194.78 142.064 192.24V162.901C142.064 160.361 140.005 158.302 137.465 158.302Z" fill="white"/>
</mask>
<g mask="url(#mask15_578_2914)">
<path d="M83.4389 149.35C83.4389 149.35 69.0355 193.065 142.886 194.298C216.737 195.53 136.932 212.231 136.932 212.231L71.1025 218.782L47.6316 169.546L83.4389 149.35Z" fill="#195E5C"/>
</g>
<path d="M135.44 161.14H82.5312C81.2845 161.14 80.2738 162.151 80.2738 163.398V169.582C80.2738 170.829 81.2845 171.839 82.5312 171.839H135.44C136.687 171.839 137.697 170.829 137.697 169.582V163.398C137.697 162.151 136.687 161.14 135.44 161.14Z" fill="#FDB856"/>
<path d="M133.573 162.886H83.9597C83.1898 162.886 82.5657 163.51 82.5657 164.28V168.589C82.5657 169.359 83.1898 169.983 83.9597 169.983H133.573C134.343 169.983 134.967 169.359 134.967 168.589V164.28C134.967 163.51 134.343 162.886 133.573 162.886Z" fill="#E0953D"/>
<mask id="mask16_578_2914" style="mask-type:luminance" maskUnits="userSpaceOnUse" x="82" y="162" width="53" height="8">
<path d="M133.573 162.886H83.9597C83.1898 162.886 82.5657 163.51 82.5657 164.28V168.589C82.5657 169.359 83.1898 169.983 83.9597 169.983H133.573C134.343 169.983 134.967 169.359 134.967 168.589V164.28C134.967 163.51 134.343 162.886 133.573 162.886Z" fill="white"/>
</mask>
<g mask="url(#mask16_578_2914)">
<path fill-rule="evenodd" clip-rule="evenodd" d="M136.933 165.233H80.8197V163.814H136.933V165.233Z" fill="white"/>
<path fill-rule="evenodd" clip-rule="evenodd" d="M137.042 166.707H80.9285V165.288H137.042V166.707Z" fill="white"/>
<path fill-rule="evenodd" clip-rule="evenodd" d="M137.042 168.236H80.9285V166.817H137.042V168.236Z" fill="white"/>
</g>
<path d="M100.198 174.786H94.7388C93.9852 174.786 93.3743 175.397 93.3743 176.151C93.3743 176.905 93.9852 177.516 94.7388 177.516H100.198C100.951 177.516 101.562 176.905 101.562 176.151C101.562 175.397 100.951 174.786 100.198 174.786Z" fill="#CACC97"/>
<path d="M111.769 174.786H106.31C105.557 174.786 104.946 175.397 104.946 176.151C104.946 176.905 105.557 177.516 106.31 177.516H111.769C112.523 177.516 113.134 176.905 113.134 176.151C113.134 175.397 112.523 174.786 111.769 174.786Z" fill="#CACC97"/>
<path d="M123.342 174.786H117.883C117.129 174.786 116.518 175.397 116.518 176.151C116.518 176.905 117.129 177.516 117.883 177.516H123.342C124.095 177.516 124.706 176.905 124.706 176.151C124.706 175.397 124.095 174.786 123.342 174.786Z" fill="#CACC97"/>
<path d="M123.905 192.318H131.995L127.215 198.446L123.905 192.318Z" fill="#878168"/>
<path d="M113.61 183.738L110.62 191.215L115.449 188.151L113.61 183.738Z" fill="#878168"/>
<path d="M106.133 208.374C112.225 208.374 117.164 205.109 117.164 201.082C117.164 197.054 112.225 193.789 106.133 193.789C100.041 193.789 95.1019 197.054 95.1019 201.082C95.1019 205.109 100.041 208.374 106.133 208.374Z" fill="#C1BCA3"/>
<mask id="mask17_578_2914" style="mask-type:luminance" maskUnits="userSpaceOnUse" x="95" y="193" width="23" height="16">
<path d="M106.133 208.374C112.225 208.374 117.164 205.109 117.164 201.082C117.164 197.054 112.225 193.789 106.133 193.789C100.041 193.789 95.1019 197.054 95.1019 201.082C95.1019 205.109 100.041 208.374 106.133 208.374Z" fill="white"/>
</mask>
<g mask="url(#mask17_578_2914)">
<path d="M107.024 192.363C107.024 192.363 99.2747 204.044 117.176 206.991C135.078 209.938 120.451 193.781 120.451 193.781L107.024 192.363Z" fill="#A39E89"/>
</g>
<mask id="mask18_578_2914" style="mask-type:luminance" maskUnits="userSpaceOnUse" x="95" y="193" width="23" height="16">
<path d="M106.133 208.374C112.225 208.374 117.164 205.109 117.164 201.082C117.164 197.054 112.225 193.789 106.133 193.789C100.041 193.789 95.1019 197.054 95.1019 201.082C95.1019 205.109 100.041 208.374 106.133 208.374Z" fill="white"/>
</mask>
<g mask="url(#mask18_578_2914)">
<path d="M99.1442 199.131C99.5573 199.131 99.8922 197.493 99.8922 195.473C99.8922 193.454 99.5573 191.816 99.1442 191.816C98.7311 191.816 98.3962 193.454 98.3962 195.473C98.3962 197.493 98.7311 199.131 99.1442 199.131Z" fill="#878168"/>
<path d="M101.637 199.131C102.05 199.131 102.385 197.493 102.385 195.473C102.385 193.454 102.05 191.816 101.637 191.816C101.224 191.816 100.889 193.454 100.889 195.473C100.889 197.493 101.224 199.131 101.637 199.131Z" fill="#878168"/>
<path d="M104.13 199.131C104.544 199.131 104.878 197.493 104.878 195.473C104.878 193.454 104.544 191.816 104.13 191.816C103.717 191.816 103.382 193.454 103.382 195.473C103.382 197.493 103.717 199.131 104.13 199.131Z" fill="#878168"/>
<path d="M98.1262 207.842C98.7461 205.92 98.9298 204.259 98.5366 204.132C98.1435 204.005 97.3223 205.461 96.7025 207.383C96.0827 209.306 95.8989 210.967 96.2921 211.094C96.6853 211.22 97.5064 209.765 98.1262 207.842Z" fill="#878168"/>
<path d="M100.499 208.607C101.119 206.684 101.302 205.023 100.909 204.896C100.516 204.77 99.6948 206.225 99.075 208.148C98.4552 210.07 98.2715 211.731 98.6646 211.858C99.0578 211.985 99.879 210.529 100.499 208.607Z" fill="#878168"/>
<path d="M102.942 210.367C103.568 208.448 103.758 206.789 103.365 206.661C102.973 206.533 102.147 207.985 101.521 209.904C100.895 211.823 100.705 213.482 101.098 213.61C101.49 213.738 102.316 212.286 102.942 210.367Z" fill="#878168"/>
</g>
<path d="M96.2053 199.181C96.2053 199.181 85.0514 203.349 91.0571 209.11C96.4377 214.27 98.0432 210.335 96.8176 209.11C95.5921 207.884 92.0375 207.149 91.9154 205.8C91.7107 203.55 96.5725 201.757 97.4308 201.265C98.2891 200.773 96.2053 199.181 96.2053 199.181Z" fill="#C1BCA3"/>
<mask id="mask19_578_2914" style="mask-type:luminance" maskUnits="userSpaceOnUse" x="89" y="199" width="9" height="13">
<path d="M96.2053 199.181C96.2053 199.181 85.0514 203.349 91.0571 209.11C96.4377 214.27 98.0432 210.335 96.8176 209.11C95.5921 207.884 92.0375 207.149 91.9154 205.8C91.7107 203.55 96.5725 201.757 97.4308 201.265C98.2891 200.773 96.2053 199.181 96.2053 199.181Z" fill="white"/>
</mask>
<g mask="url(#mask19_578_2914)">
<path d="M89.6226 210.018C89.8475 210.251 90.609 209.879 91.3233 209.187C92.0375 208.496 92.4343 207.747 92.2094 207.514C91.9845 207.282 91.223 207.654 90.5088 208.346C89.7945 209.037 89.3978 209.786 89.6226 210.018Z" fill="#878168"/>
<path d="M90.7809 211.195C91.0058 211.428 91.7673 211.056 92.4815 210.365C93.1958 209.673 93.5925 208.924 93.3677 208.692C93.1428 208.459 92.3805 208.831 91.6662 209.522C90.9519 210.214 90.556 210.963 90.7809 211.195Z" fill="#878168"/>
<path d="M91.8371 212.311C92.062 212.544 92.8234 212.172 93.5377 211.481C94.252 210.789 94.6487 210.04 94.4238 209.808C94.1989 209.575 93.4375 209.947 92.7232 210.638C92.0089 211.33 91.6097 212.079 91.8371 212.311Z" fill="#878168"/>
</g>
<path d="M109.991 206.445C109.979 206.22 110.028 205.997 110.133 205.799C110.237 205.6 110.394 205.433 110.586 205.317C110.777 205.2 110.997 205.137 111.221 205.135C111.446 205.133 111.667 205.192 111.86 205.305C113.008 205.979 114.633 206.855 116.184 207.394C117.671 207.911 117.862 208.565 117.71 209.067C117.636 209.297 117.494 209.499 117.304 209.648C117.114 209.796 116.884 209.885 116.644 209.902C115.026 210.042 110.179 210.147 109.991 206.445Z" fill="#878168"/>
<path d="M118.267 207.639C119.824 207.639 121.086 206.843 121.086 205.862C121.086 204.88 119.824 204.084 118.267 204.084C116.71 204.084 115.448 204.88 115.448 205.862C115.448 206.843 116.71 207.639 118.267 207.639Z" fill="#878168"/>
<path d="M104.588 203.339C105.808 204.364 106.601 205.976 104.892 208.328C107.114 209.11 111.159 211.316 107.114 210.948C103.069 210.581 95.3469 208.865 95.9601 205.8C96.2903 204.15 97.9362 203.139 99.3841 202.558C101.133 201.857 103.149 202.128 104.588 203.339Z" fill="#878168"/>
<path d="M117.164 205.8C123.121 205.8 127.95 201.822 127.95 196.914C127.95 192.006 123.121 188.028 117.164 188.028C111.208 188.028 106.379 192.006 106.379 196.914C106.379 201.822 111.208 205.8 117.164 205.8Z" fill="#C1BCA3"/>
<mask id="mask20_578_2914" style="mask-type:luminance" maskUnits="userSpaceOnUse" x="106" y="188" width="22" height="18">
<path d="M117.164 205.8C123.121 205.8 127.95 201.822 127.95 196.914C127.95 192.006 123.121 188.028 117.164 188.028C111.208 188.028 106.379 192.006 106.379 196.914C106.379 201.822 111.208 205.8 117.164 205.8Z" fill="white"/>
</mask>
<g mask="url(#mask20_578_2914)">
<path d="M119.926 189.411C120.703 187.844 121.004 186.411 120.599 186.21C120.194 186.009 119.236 187.117 118.459 188.683C117.682 190.25 117.38 191.683 117.785 191.883C118.19 192.084 119.149 190.977 119.926 189.411Z" fill="#878168"/>
<path d="M121.782 190.325C121.005 191.891 120.047 192.998 119.642 192.797C119.237 192.595 119.538 191.164 120.316 189.596C121.093 188.028 122.051 186.922 122.456 187.124C122.861 187.325 122.559 188.761 121.782 190.325Z" fill="#878168"/>
<path d="M123.641 191.254C124.418 189.688 124.72 188.255 124.315 188.054C123.91 187.853 122.951 188.96 122.174 190.527C121.397 192.093 121.096 193.526 121.501 193.727C121.906 193.928 122.864 192.821 123.641 191.254Z" fill="#878168"/>
<path d="M120.573 204.956C120.849 204.859 120.769 203.915 120.394 202.848C120.019 201.78 119.492 200.994 119.216 201.09C118.94 201.187 119.02 202.131 119.395 203.199C119.769 204.266 120.297 205.053 120.573 204.956Z" fill="#878168"/>
<path d="M122.496 205.454C122.773 205.358 122.694 204.41 122.32 203.338C121.945 202.266 121.417 201.476 121.14 201.572C120.863 201.669 120.942 202.617 121.316 203.689C121.691 204.761 122.219 205.551 122.496 205.454Z" fill="#878168"/>
<path d="M123.769 205.01C124.047 204.913 123.968 203.966 123.593 202.894C123.218 201.822 122.69 201.031 122.413 201.128C122.136 201.225 122.215 202.172 122.589 203.244C122.964 204.316 123.492 205.107 123.769 205.01Z" fill="#878168"/>
<path d="M109.281 195.269C109.3 194.976 108.397 194.679 107.264 194.605C106.131 194.53 105.197 194.708 105.178 195.001C105.158 195.294 106.062 195.591 107.195 195.665C108.328 195.739 109.262 195.562 109.281 195.269Z" fill="#878168"/>
<path d="M107.345 193.249C106.212 193.175 105.278 193.353 105.259 193.646C105.241 193.939 106.143 194.235 107.276 194.31C108.409 194.385 109.343 194.207 109.362 193.914C109.382 193.621 108.478 193.323 107.345 193.249Z" fill="#878168"/>
<path d="M107.433 191.905C106.3 191.831 105.366 192.008 105.347 192.301C105.328 192.595 106.231 192.891 107.363 192.966C108.496 193.041 109.43 192.862 109.45 192.569C109.469 192.276 108.566 191.979 107.433 191.905Z" fill="#878168"/>
</g>
<path fill-rule="evenodd" clip-rule="evenodd" d="M111.963 192.013C112.393 192.309 112.503 192.898 112.207 193.328C112.014 193.609 111.939 193.955 112 194.29C112.061 194.625 112.251 194.923 112.53 195.118C112.809 195.314 113.154 195.391 113.49 195.334C113.826 195.276 114.125 195.088 114.323 194.811C114.627 194.386 115.218 194.287 115.643 194.591C116.068 194.895 116.166 195.485 115.863 195.91C115.375 196.593 114.637 197.056 113.81 197.198C112.982 197.34 112.132 197.149 111.445 196.668C110.757 196.186 110.288 195.452 110.139 194.626C109.989 193.8 110.172 192.949 110.648 192.257C110.944 191.826 111.532 191.717 111.963 192.013Z" fill="#878168"/>
<path fill-rule="evenodd" clip-rule="evenodd" d="M118.648 196.019C119.117 196.248 119.311 196.815 119.082 197.284C119.007 197.437 118.963 197.603 118.953 197.773C118.943 197.943 118.966 198.114 119.022 198.275C119.077 198.436 119.164 198.584 119.278 198.711C119.391 198.838 119.528 198.942 119.682 199.016C119.835 199.09 120.002 199.133 120.172 199.142C120.342 199.151 120.512 199.127 120.673 199.07C120.833 199.014 120.981 198.926 121.108 198.812C121.234 198.698 121.337 198.56 121.41 198.406C121.634 197.934 122.198 197.733 122.67 197.957C123.142 198.181 123.343 198.745 123.119 199.217C122.939 199.596 122.686 199.936 122.374 200.217C122.062 200.498 121.698 200.714 121.302 200.854C120.906 200.994 120.487 201.054 120.068 201.031C119.649 201.008 119.239 200.902 118.861 200.72C118.482 200.538 118.144 200.283 117.865 199.969C117.586 199.656 117.372 199.29 117.234 198.894C117.097 198.497 117.039 198.077 117.065 197.658C117.09 197.239 117.198 196.83 117.383 196.453C117.612 195.984 118.179 195.789 118.648 196.019Z" fill="#878168"/>
<path fill-rule="evenodd" clip-rule="evenodd" d="M113.38 199.879C113.336 199.646 113.204 199.429 112.995 199.281C112.567 198.981 111.977 199.084 111.677 199.511C111.432 199.859 111.336 200.29 111.409 200.709C111.482 201.129 111.719 201.502 112.067 201.747C112.415 201.991 112.846 202.088 113.265 202.015C113.685 201.942 114.058 201.705 114.303 201.357C114.603 200.93 114.5 200.34 114.073 200.039C113.863 199.892 113.614 199.842 113.38 199.879ZM112.755 200.269C112.755 200.269 112.755 200.269 112.755 200.269L112.755 200.269Z" fill="#878168"/>
<path fill-rule="evenodd" clip-rule="evenodd" d="M114.473 200.446C114.388 200.214 114.212 200.015 113.968 199.907C113.491 199.695 112.932 199.911 112.721 200.389C112.552 200.77 112.538 201.201 112.682 201.592C112.826 201.983 113.116 202.303 113.491 202.483C113.866 202.664 114.297 202.692 114.692 202.561C115.087 202.43 115.416 202.151 115.609 201.782C115.852 201.319 115.673 200.748 115.21 200.505C114.973 200.382 114.708 200.368 114.473 200.446Z" fill="#878168"/>
<path d="M114.684 200.059C114.548 200.294 114.184 200.338 113.871 200.157C113.558 199.976 113.414 199.639 113.549 199.404C113.685 199.169 114.049 199.125 114.362 199.306C114.675 199.487 114.819 199.824 114.684 200.059Z" fill="#878168"/>
<path d="M158.439 88.6513L171.321 105.791L182.238 99.5676L171.103 84.0658L158.439 88.6513Z" fill="#E2C686"/>
<path d="M159.204 87.232L172.085 104.371L183.002 98.1483L171.867 82.6465L159.204 87.232Z" fill="#FFE8B0"/>
<path d="M147.382 124.459H167.176L175.438 133.914C176.346 134.952 175.607 136.577 174.229 136.577H153.309L146.281 126.577C146.141 126.375 146.058 126.139 146.042 125.894C146.026 125.648 146.077 125.403 146.191 125.185C146.304 124.967 146.475 124.784 146.685 124.656C146.895 124.528 147.136 124.459 147.382 124.459Z" fill="#DFE7F4"/>
<path d="M148.073 124.459H166.852C166.916 124.459 166.979 124.472 167.037 124.499C167.095 124.525 167.147 124.563 167.189 124.611L175.781 134.298C175.838 134.363 175.876 134.443 175.889 134.529C175.902 134.615 175.89 134.703 175.855 134.782C175.819 134.862 175.761 134.929 175.689 134.977C175.616 135.024 175.531 135.049 175.444 135.05H154.984C154.912 135.05 154.841 135.032 154.777 135C154.713 134.967 154.658 134.919 154.616 134.86L147.705 125.174C147.657 125.106 147.628 125.026 147.622 124.944C147.616 124.861 147.633 124.778 147.671 124.704C147.709 124.63 147.766 124.568 147.837 124.525C147.908 124.482 147.99 124.459 148.073 124.459Z" fill="#4C6A9E"/>
<path d="M151.452 125.878L152.871 127.843H166.955L165.208 125.878H151.452Z" fill="#9FAABC"/>
<path d="M167.937 106.905C167.937 106.905 164.225 104.362 166.407 101.814C168.588 99.2661 168.917 100.083 168.917 100.083C169.076 100.381 169.158 100.714 169.158 101.052C169.158 101.389 169.076 101.722 168.917 102.02C170.883 101.817 172.52 104.26 171.537 104.77C170.554 105.279 167.716 106.907 167.716 106.907" fill="#FF886E"/>
<mask id="mask21_578_2914" style="mask-type:luminance" maskUnits="userSpaceOnUse" x="165" y="99" width="7" height="8">
<path d="M167.937 106.905C167.937 106.905 164.225 104.362 166.407 101.814C168.588 99.2661 168.917 100.083 168.917 100.083C169.076 100.381 169.158 100.714 169.158 101.052C169.158 101.389 169.076 101.722 168.917 102.02C170.883 101.817 172.52 104.26 171.537 104.77C170.554 105.279 167.716 106.907 167.716 106.907" fill="white"/>
</mask>
<g mask="url(#mask21_578_2914)">
<path d="M169.136 97.8367C169.002 97.9188 168.887 98.0286 168.798 98.1588C168.709 98.289 168.649 98.4366 168.622 98.5917C168.595 98.7469 168.601 98.9061 168.64 99.0586C168.679 99.2112 168.751 99.3537 168.849 99.4766C169.106 99.8135 169.202 100.249 168.809 100.773C168.617 101.016 168.481 101.297 168.408 101.597C168.375 101.754 168.377 101.916 168.414 102.072C168.45 102.229 168.521 102.375 168.621 102.501C168.72 102.626 168.846 102.729 168.99 102.801C169.133 102.872 169.291 102.912 169.451 102.916C170.179 102.932 171.247 103.175 171.101 104.485C170.929 106.038 172.804 103.633 173.596 102.559C173.703 102.414 173.772 102.245 173.799 102.067C173.825 101.89 173.808 101.708 173.748 101.539L172.316 97.4686C172.261 97.3138 172.173 97.1732 172.058 97.0568C171.942 96.9405 171.802 96.8514 171.647 96.796C171.493 96.7407 171.328 96.7205 171.165 96.7369C171.002 96.7532 170.844 96.8058 170.704 96.8907L169.136 97.8367Z" fill="#E55E48"/>
</g>
<path d="M170.994 133.479C170.994 133.479 168.265 130.628 165.754 131.542C163.243 132.456 164.659 134.087 164.659 134.087C164.659 134.087 166.078 135.411 167.278 135.512C164.659 135.512 163.895 137.549 168.807 137.955C173.719 138.361 175.248 135.919 175.248 135.919L170.994 133.479Z" fill="#FF886E"/>
<mask id="mask22_578_2914" style="mask-type:luminance" maskUnits="userSpaceOnUse" x="164" y="131" width="12" height="8">
<path d="M170.994 133.479C170.994 133.479 168.265 130.628 165.754 131.542C163.243 132.456 164.659 134.087 164.659 134.087C164.659 134.087 166.078 135.411 167.278 135.512C164.659 135.512 163.895 137.549 168.807 137.955C173.719 138.361 175.248 135.919 175.248 135.919L170.994 133.479Z" fill="white"/>
</mask>
<g mask="url(#mask22_578_2914)">
<path d="M165.754 129.153C165.754 129.153 162.369 132.647 165.754 134.066C169.138 135.485 165.426 136.904 169.793 136.904C174.159 136.904 176.343 134.72 176.343 134.72L175.688 139.961L162.587 143.672L155.492 128.389L165.754 129.153Z" fill="#E25A44"/>
</g>
<path d="M166.406 106.701C166.406 106.701 170.227 130.323 174.812 128.286C179.396 126.249 173.939 105.48 173.939 105.48C173.939 105.48 169.466 102.527 166.406 106.701Z" fill="#FFCF48"/>
<mask id="mask23_578_2914" style="mask-type:luminance" maskUnits="userSpaceOnUse" x="166" y="104" width="11" height="25">
<path d="M166.406 106.701C166.406 106.701 170.227 130.323 174.812 128.286C179.396 126.249 173.939 105.48 173.939 105.48C173.939 105.48 169.466 102.527 166.406 106.701Z" fill="white"/>
</mask>
<g mask="url(#mask23_578_2914)">
<path d="M172.522 101.751C172.522 101.751 172.413 110.266 171.321 116.491C170.23 122.717 166.627 128.284 172.522 131.338C178.418 134.392 181.147 131.338 181.147 131.338L182.347 108.085L172.522 101.751Z" fill="#E5B438"/>
</g>
<path d="M186.499 173.75C186.499 173.75 183.05 186.686 185.492 186.11C187.935 185.535 195.984 177.631 192.391 175.044C188.798 172.457 186.499 173.75 186.499 173.75Z" fill="#E5B438"/>
<path d="M181.147 117.799L169.902 133.071C169.902 133.071 171.539 137.957 175.47 136.737C179.4 135.517 188.788 119.428 188.788 119.428C188.788 119.428 191.844 105.989 181.147 117.799Z" fill="#C1932B"/>
<path d="M193.62 91.3459C193.524 91.3324 193.427 91.3273 193.33 91.3307C192.052 91.3728 183.114 91.949 178.964 99.8801C174.488 108.432 170.666 122.178 171.977 126.148C173.287 130.119 178.745 131.646 182.566 123.706C183.395 121.982 185.991 122.654 185.881 124.562L185.196 136.514C185.19 136.621 185.174 136.727 185.148 136.83C184.915 137.772 183.858 142.996 189.225 142.254C193.979 141.598 207.105 142.12 212.013 142.348C212.254 142.359 212.495 142.32 212.72 142.233C212.945 142.147 213.15 142.014 213.321 141.844C213.493 141.675 213.627 141.471 213.716 141.247C213.805 141.023 213.846 140.783 213.838 140.542C213.523 131.644 211.816 94.4279 205.383 93.2629C198.802 92.0711 194.431 91.457 193.62 91.3459Z" fill="#FFCF48"/>
<mask id="mask24_578_2914" style="mask-type:luminance" maskUnits="userSpaceOnUse" x="171" y="91" width="43" height="52">
<path d="M193.62 91.3459C193.524 91.3324 193.427 91.3273 193.33 91.3307C192.052 91.3728 183.114 91.949 178.964 99.8801C174.488 108.432 170.666 122.178 171.977 126.148C173.287 130.119 178.745 131.646 182.566 123.706C183.395 121.982 185.991 122.654 185.881 124.562L185.196 136.514C185.19 136.621 185.174 136.727 185.148 136.83C184.915 137.772 183.858 142.996 189.225 142.254C193.979 141.598 207.105 142.12 212.013 142.348C212.254 142.359 212.495 142.32 212.72 142.233C212.945 142.147 213.15 142.014 213.321 141.844C213.493 141.675 213.627 141.471 213.716 141.247C213.805 141.023 213.846 140.783 213.838 140.542C213.523 131.644 211.816 94.4279 205.383 93.2629C198.802 92.0711 194.431 91.457 193.62 91.3459Z" fill="white"/>
</mask>
<g mask="url(#mask24_578_2914)">
<path d="M171.867 128.389C171.867 128.389 174.706 130.463 179.51 125.878C184.313 121.292 183.986 118.455 187.042 120.747C190.099 123.039 193.156 140.834 189.226 142.363C185.295 143.892 177.544 141.268 177.544 141.268L171.867 128.389Z" fill="#E5B438"/>
</g>
<path d="M174.468 71.9989C174.468 71.9989 167.224 79.2377 174.531 78.1039C175.538 75.0826 174.468 71.9989 174.468 71.9989Z" fill="#DD624E"/>
<path fill-rule="evenodd" clip-rule="evenodd" d="M177.329 71.9988C176.893 71.9988 176.655 72.3128 176.655 72.5633C176.655 72.8138 176.893 73.1278 177.329 73.1278C177.764 73.1278 178.003 72.8138 178.003 72.5633C178.003 72.3128 177.764 71.9988 177.329 71.9988ZM174.763 72.5633C174.763 71.1456 175.975 70.1073 177.329 70.1073C178.682 70.1073 179.894 71.1456 179.894 72.5633C179.894 73.981 178.682 75.0193 177.329 75.0193C175.975 75.0193 174.763 73.981 174.763 72.5633Z" fill="black"/>
<path fill-rule="evenodd" clip-rule="evenodd" d="M172.456 67.1439C172.017 68.14 171.721 69.5824 171.721 71.2257C171.721 72.869 172.017 74.3114 172.456 75.3075C172.676 75.8069 172.914 76.152 173.13 76.3593C173.342 76.5621 173.485 76.5922 173.559 76.5922C173.633 76.5922 173.777 76.5621 173.988 76.3593C174.204 76.152 174.442 75.8069 174.662 75.3075C175.102 74.3114 175.397 72.869 175.397 71.2257C175.397 69.5824 175.102 68.14 174.662 67.1439C174.442 66.6445 174.204 66.2994 173.988 66.0921C173.777 65.8893 173.633 65.8592 173.559 65.8592C173.485 65.8592 173.342 65.8893 173.13 66.0921C172.914 66.2994 172.676 66.6445 172.456 67.1439ZM171.821 64.7269C172.276 64.2909 172.865 63.9677 173.559 63.9677C174.254 63.9677 174.843 64.2909 175.297 64.7269C175.747 65.1584 176.109 65.7377 176.393 66.3806C176.961 67.6691 177.289 69.3828 177.289 71.2257C177.289 73.0686 176.961 74.7823 176.393 76.0708C176.109 76.7137 175.747 77.293 175.297 77.7245C174.843 78.1605 174.254 78.4837 173.559 78.4837C172.865 78.4837 172.276 78.1605 171.821 77.7245C171.371 77.293 171.009 76.7137 170.725 76.0708C170.157 74.7823 169.83 73.0686 169.83 71.2257C169.83 69.3828 170.157 67.6691 170.725 66.3806C171.009 65.7377 171.371 65.1584 171.821 64.7269Z" fill="black"/>
<path d="M180.574 58.8396C180.574 58.8396 171.635 70.9275 174.027 82.6373C176.419 94.347 189.765 87.6734 189.765 87.6734C189.765 87.6734 196.062 55.3145 180.574 58.8396Z" fill="#FF886E"/>
<mask id="mask25_578_2914" style="mask-type:luminance" maskUnits="userSpaceOnUse" x="173" y="58" width="19" height="32">
<path d="M180.574 58.8396C180.574 58.8396 171.635 70.9275 174.027 82.6373C176.419 94.347 189.765 87.6734 189.765 87.6734C189.765 87.6734 196.062 55.3145 180.574 58.8396Z" fill="white"/>
</mask>
<g mask="url(#mask25_578_2914)">
<path d="M178.674 61.9098C178.674 61.9098 192.901 74.7524 180.311 90.3654C167.452 106.31 197.056 88.6025 197.056 88.6025L195.545 56.1181L179.807 57.3773L178.674 61.9098Z" fill="#CC5542"/>
</g>
<path d="M179.369 176.942C179.369 176.942 175.916 189.876 178.359 189.301C180.801 188.726 188.85 180.822 185.257 178.235C181.664 175.648 179.369 176.942 179.369 176.942Z" fill="#FFCF48"/>
<mask id="mask26_578_2914" style="mask-type:luminance" maskUnits="userSpaceOnUse" x="177" y="176" width="10" height="14">
<path d="M179.369 176.942C179.369 176.942 175.916 189.876 178.359 189.301C180.801 188.726 188.85 180.822 185.257 178.235C181.664 175.648 179.369 176.942 179.369 176.942Z" fill="white"/>
</mask>
<g mask="url(#mask26_578_2914)">
<path d="M187.043 177.406C187.043 177.406 180.71 180.245 178.527 186.14C176.344 192.035 180.602 194.328 180.602 194.328C180.602 194.328 192.718 179.589 187.043 177.406Z" fill="#FFE7AB"/>
</g>
<path d="M177.441 67.544C177.441 67.544 178.735 66.8255 180.028 67.544C181.322 68.2624 180.028 69.4122 180.028 69.4122C180.028 69.4122 177.013 68.5497 177.441 67.544Z" fill="#620C0D"/>
<path d="M178.307 73.5083C179.14 73.5083 179.816 72.8325 179.816 71.9989C179.816 71.1653 179.14 70.4895 178.307 70.4895C177.473 70.4895 176.797 71.1653 176.797 71.9989C176.797 72.8325 177.473 73.5083 178.307 73.5083Z" fill="#620C0D"/>
<path d="M178.522 151.546L186.283 174.829H191.744L189.301 150.684L178.522 151.546Z" fill="#3F0F1F"/>
<path d="M188.262 139.474C188.262 139.474 125.281 136.025 179.175 178.853L184.345 177.128C184.345 177.128 169.461 154.708 180.115 153.846C190.768 152.983 226.646 163.188 214.113 139.906C202.833 138.037 188.262 139.474 188.262 139.474Z" fill="#C92D47"/>
<mask id="mask27_578_2914" style="mask-type:luminance" maskUnits="userSpaceOnUse" x="157" y="138" width="60" height="41">
<path d="M188.262 139.474C188.262 139.474 125.281 136.025 179.175 178.853L184.345 177.128C184.345 177.128 169.461 154.708 180.115 153.846C190.768 152.983 226.646 163.188 214.113 139.906C202.833 138.037 188.262 139.474 188.262 139.474Z" fill="white"/>
</mask>
<g mask="url(#mask27_578_2914)">
<path d="M222.951 150.689C222.951 150.689 204.97 155.348 179.852 150.689C159.172 146.854 180.4 177.76 184.381 177.13C188.362 176.5 181.499 160.51 181.499 160.51L206.068 158.873L221.441 155.725L222.951 150.689Z" fill="#63182C"/>
</g>
<path d="M184.078 78.1188C184.437 76.5962 183.494 75.0705 181.972 74.7111C180.449 74.3518 178.923 75.2948 178.564 76.8174C178.205 78.34 179.148 79.8656 180.67 80.225C182.193 80.5844 183.718 79.6414 184.078 78.1188Z" fill="#E54833"/>
<path fill-rule="evenodd" clip-rule="evenodd" d="M170.838 69.5709L185.776 70.281L185.687 72.1704L170.748 71.4603L170.838 69.5709Z" fill="black"/>
<path fill-rule="evenodd" clip-rule="evenodd" d="M175.101 82.3232C174.748 81.9437 174.154 81.9188 173.771 82.2689C173.385 82.6211 173.358 83.2193 173.71 83.605L174.408 82.9674C173.71 83.605 173.71 83.6054 173.711 83.6058L173.711 83.6065L173.713 83.6082L173.716 83.612L173.725 83.6213C173.732 83.6284 173.74 83.637 173.75 83.6469C173.769 83.6669 173.795 83.6926 173.827 83.7226C173.89 83.7824 173.979 83.8609 174.09 83.9468C174.308 84.1156 174.635 84.329 175.046 84.4752C175.463 84.6233 175.981 84.7068 176.555 84.5889C177.132 84.4701 177.694 84.1616 178.214 83.6412C178.583 83.2719 178.583 82.6731 178.214 82.3037C177.845 81.9344 177.246 81.9344 176.876 82.3037C176.578 82.602 176.338 82.7024 176.174 82.7361C176.005 82.7707 175.842 82.7506 175.679 82.6928C175.511 82.6331 175.36 82.5381 175.247 82.4501C175.192 82.4076 175.15 82.3706 175.125 82.347C175.113 82.3353 175.105 82.3273 175.102 82.324C175.101 82.3237 175.101 82.3234 175.101 82.3232Z" fill="#620C0D"/>
<path d="M179.092 61.2553C179.092 61.2553 178.308 70.3202 186.823 73.4763C189.662 78.3617 182.457 87.1706 188.024 92.3625C193.592 97.5545 188.788 101.972 193.482 102.38C198.177 102.788 198.614 98.4095 198.614 98.4095C198.614 98.4095 200.688 103.33 206.037 102.516C211.386 101.701 211.278 99.427 211.278 99.427C211.278 99.427 218.483 101.424 221.975 98.3673C225.212 95.5355 223.176 88.9908 218.591 86.1404C214.005 83.2901 214.77 79.37 215.862 73.6684C216.953 67.9668 213.46 46.8906 198.395 49.2322C195.556 46.2841 178.307 47.7051 173.831 55.9521C169.461 64.0046 177.434 64.8098 177.434 64.8098L179.092 61.2553Z" fill="#620C0D"/>
<path d="M194.876 196.552C194.47 196.551 194.08 196.389 193.792 196.101C193.504 195.813 193.342 195.424 193.341 195.017V157.175C193.342 156.768 193.504 156.378 193.792 156.091C194.08 155.803 194.47 155.641 194.876 155.64C195.283 155.641 195.673 155.803 195.961 156.091C196.248 156.378 196.411 156.768 196.412 157.175V195.018C196.41 195.424 196.248 195.814 195.96 196.101C195.673 196.389 195.283 196.551 194.876 196.552Z" fill="#AFA0A1"/>
<mask id="mask28_578_2914" style="mask-type:luminance" maskUnits="userSpaceOnUse" x="193" y="155" width="4" height="42">
<path d="M194.876 196.552C194.47 196.551 194.08 196.389 193.792 196.101C193.504 195.813 193.342 195.424 193.341 195.017V157.175C193.342 156.768 193.504 156.378 193.792 156.091C194.08 155.803 194.47 155.641 194.876 155.64C195.283 155.641 195.673 155.803 195.961 156.091C196.248 156.378 196.411 156.768 196.412 157.175V195.018C196.41 195.424 196.248 195.814 195.96 196.101C195.673 196.389 195.283 196.551 194.876 196.552Z" fill="white"/>
</mask>
<g mask="url(#mask28_578_2914)">
<path d="M198.102 151.417C198.102 150.527 197.38 149.805 196.49 149.805C195.6 149.805 194.878 150.527 194.878 151.417V196.398C194.878 197.289 195.6 198.011 196.49 198.011C197.38 198.011 198.102 197.289 198.102 196.398V151.417Z" fill="#776F70"/>
</g>
<path d="M195.108 195.324C195.108 195.324 204.934 193.021 207.39 200.237C207.39 202.079 206.008 201.465 206.008 201.465C206.008 201.465 202.17 196.706 195.108 198.241C194.034 196.552 195.108 195.324 195.108 195.324Z" fill="#877B7C"/>
<path d="M194.631 195.324C194.631 195.324 184.806 193.021 182.349 200.237C182.349 202.079 183.731 201.465 183.731 201.465C183.731 201.465 187.569 196.706 194.631 198.241C195.705 196.552 194.631 195.324 194.631 195.324Z" fill="#877B7C"/>
<mask id="mask29_578_2914" style="mask-type:luminance" maskUnits="userSpaceOnUse" x="182" y="194" width="14" height="8">
<path d="M194.631 195.324C194.631 195.324 184.806 193.021 182.349 200.237C182.349 202.079 183.731 201.465 183.731 201.465C183.731 201.465 187.569 196.706 194.631 198.241C195.705 196.552 194.631 195.324 194.631 195.324Z" fill="white"/>
</mask>
<g mask="url(#mask29_578_2914)">
<path d="M181.982 202.002C181.982 202.002 184.746 195.708 193.573 196.552C203.015 195.709 207.621 200.159 207.313 201.542C207.006 202.924 195.8 208.448 195.8 208.448L181.982 202.002Z" fill="#605859"/>
<path d="M195.108 195.324C195.108 195.324 204.934 193.021 207.39 200.237C207.39 202.079 206.008 201.465 206.008 201.465C206.008 201.465 202.17 196.706 195.108 198.241C194.034 196.552 195.108 195.324 195.108 195.324Z" fill="#877B7C"/>
</g>
<mask id="mask30_578_2914" style="mask-type:luminance" maskUnits="userSpaceOnUse" x="194" y="194" width="14" height="8">
<path d="M195.108 195.324C195.108 195.324 204.934 193.021 207.39 200.237C207.39 202.079 206.008 201.465 206.008 201.465C206.008 201.465 202.17 196.706 195.108 198.241C194.034 196.552 195.108 195.324 195.108 195.324Z" fill="white"/>
</mask>
<g mask="url(#mask30_578_2914)">
<path d="M193.961 196.521C193.961 196.521 204.395 195.247 207.006 200.313C209.617 205.38 203.781 202.925 203.781 202.925L193.343 199.543L193.961 196.521Z" fill="#605859"/>
</g>
<path d="M217.942 150.265H172.735C171.653 150.265 170.775 151.143 170.775 152.225V156.442C170.775 157.524 171.653 158.402 172.735 158.402H217.942C219.025 158.402 219.902 157.524 219.902 156.442V152.225C219.902 151.143 219.025 150.265 217.942 150.265Z" fill="#350C0E"/>
<path d="M194.877 202.079C194.531 202.078 194.199 201.94 193.955 201.695C193.71 201.451 193.573 201.119 193.572 200.773V195.247C193.573 194.901 193.71 194.57 193.955 194.325C194.199 194.081 194.531 193.943 194.877 193.942C195.222 193.943 195.554 194.081 195.798 194.325C196.043 194.57 196.18 194.901 196.181 195.247V200.773C196.18 201.119 196.043 201.451 195.798 201.695C195.554 201.94 195.222 202.078 194.877 202.079Z" fill="#877B7C"/>
<path d="M173.614 25.7689C173.614 25.7689 196.976 40.8344 235.187 34.0656C273.397 27.2968 258.113 1.86085 239.553 0.113901C220.994 -1.63304 209.421 17.3627 191.081 12.778C172.741 8.19331 150.033 13.6515 173.614 25.7689Z" fill="#FFD1AC"/>
<path d="M241.163 61.85C253.236 61.85 263.024 52.0624 263.024 39.9887C263.024 27.9151 253.236 18.1275 241.163 18.1275C229.089 18.1275 219.302 27.9151 219.302 39.9887C219.302 52.0624 229.089 61.85 241.163 61.85Z" fill="#C99C6B"/>
<path d="M241.163 57.1052C250.616 57.1052 258.279 49.4419 258.279 39.9887C258.279 30.5355 250.616 22.8722 241.163 22.8722C231.71 22.8722 224.046 30.5355 224.046 39.9887C224.046 49.4419 231.71 57.1052 241.163 57.1052Z" fill="white"/>
<mask id="mask31_578_2914" style="mask-type:luminance" maskUnits="userSpaceOnUse" x="224" y="22" width="35" height="36">
<path d="M241.163 57.1052C250.616 57.1052 258.279 49.4419 258.279 39.9887C258.279 30.5355 250.616 22.8722 241.163 22.8722C231.71 22.8722 224.046 30.5355 224.046 39.9887C224.046 49.4419 231.71 57.1052 241.163 57.1052Z" fill="white"/>
</mask>
<g mask="url(#mask31_578_2914)">
<path d="M254.562 52.0324C261.213 45.3812 261.213 34.5975 254.562 27.9463C247.911 21.2951 237.127 21.2951 230.476 27.9463C223.825 34.5975 223.825 45.3812 230.476 52.0324C237.127 58.6836 247.911 58.6836 254.562 52.0324Z" fill="#EDDEA2"/>
</g>
<path fill-rule="evenodd" clip-rule="evenodd" d="M240.454 39.7495V30.3291H241.872V40.2279L235.796 48.2138L234.667 47.3548L240.454 39.7495Z" fill="black"/>
</svg>
